<?xml version="1.0" encoding="UTF-8"?><svg id="Layer_1" xmlns="http://www.w3.org/2000/svg" viewBox="0 0 30 30"><defs><style>.cls-1{fill:#5da6da;stroke-width:0px;}</style></defs><path class="cls-1" d="m12.96,16.99l.26-.26.23.18c1.56,1.19,3.28,1.51,5.11.94,2.64-.81,4.28-3.5,3.8-6.24-.38-2.19-2.03-3.93-4.19-4.43-.19-.04-.39-.08-.59-.11-.1-.01-.19-.03-.29-.05h-.81s-.07.03-.07.03c-.14.03-.28.05-.42.08-.29.05-.6.11-.88.2-1.45.47-2.64,1.56-3.27,2.98-.64,1.43-.65,3.05-.04,4.46.22.5.5.95.86,1.38l.07.09-.3.3c-.29.29-.58.58-.88.87-.07.07-.19.08-.27.05-.64-.25-1.19-.13-1.67.36l-.33.33c-.69.69-1.4,1.41-2.11,2.11-.36.35-.61.67-.69,1.09v.38c.03.07.05.13.07.2.05.16.11.31.19.43.24.36.6.58,1.01.62.44.05.88-.12,1.21-.45.48-.47.95-.95,1.42-1.42.42-.42.83-.83,1.25-1.25.5-.5.62-1.05.37-1.68-.02-.06-.03-.19.04-.26.3-.31.6-.61.91-.92Zm-.9-4.43c0-2.67,2.18-4.83,4.84-4.83h.01c1.29,0,2.51.51,3.42,1.42.91.92,1.41,2.13,1.41,3.43,0,1.3-.51,2.51-1.43,3.43-.91.91-2.12,1.4-3.41,1.4h-.03c-2.66-.01-4.82-2.19-4.81-4.85Zm-.84,6.74c-.25.26-.51.51-.77.77l-.74.74c-.4.4-.81.81-1.21,1.21-.18.18-.36.26-.59.26h0c-.28-.02-.5-.16-.62-.4-.13-.25-.11-.51.05-.76.03-.05.08-.09.12-.14l.54-.54c.72-.72,1.44-1.44,2.17-2.17.3-.3.7-.33,1.01-.1.17.13.27.32.28.53.01.22-.07.43-.23.59Z"/><path class="cls-1" d="m19.59,10.59c0-.23-.15-.4-.35-.4s-.35.16-.35.4c0,1.32,0,2.64,0,3.97,0,.04,0,.09.01.12.04.17.21.27.38.26.18-.02.31-.17.31-.37,0-.48,0-.97,0-1.45v-.55s0-.58,0-.58c0-.46,0-.93,0-1.39Z"/><path class="cls-1" d="m15.73,14.53c0,.25.13.41.35.41.09,0,.18-.03.24-.09.07-.07.11-.19.11-.32,0-1,0-1.99,0-2.99,0-.13-.04-.24-.12-.31-.06-.06-.14-.09-.23-.09h0c-.21,0-.34.16-.34.4,0,.35,0,.69,0,1.04v.46s0,.45,0,.45v1.04Z"/><path class="cls-1" d="m17.31,14.55c0,.23.14.38.34.39.1.02.18-.03.25-.09.07-.07.11-.17.11-.29,0-.79,0-1.59,0-2.38,0-.23-.14-.4-.35-.4s-.35.16-.35.4c0,.27,0,.54,0,.8v.37s0,.38,0,.38c0,.28,0,.55,0,.83Z"/><path class="cls-1" d="m14.15,14.57c0,.21.14.37.34.37h0c.2,0,.35-.15.35-.36,0-.5,0-1,0-1.5,0-.2-.16-.36-.35-.36h0c-.2,0-.34.16-.34.37,0,.17,0,.33,0,.5v.22s0,.23,0,.23c0,.18,0,.35,0,.53Z"/></svg>