<?xml version="1.0" encoding="UTF-8"?><svg id="Layer_1" xmlns="http://www.w3.org/2000/svg" viewBox="0 0 30 30"><defs><style>.cls-1{fill:#5da6da;stroke-width:0px;}</style></defs><path class="cls-1" d="m9.87,25.47c-.33-.13-.62-.32-.67-.7-.04-.32-.04-.64-.02-.96,0-.17.14-.26.31-.27.1,0,.21,0,.32,0v-2.15c-.16,0-.32,0-.48,0-.26,0-.37-.1-.38-.37-.01-.86-.03-1.73-.02-2.59,0-.3.06-.6.11-.89.12-.63.49-1.09,1.1-1.3.69-.24,1.4-.43,2.1-.63.31-.09.62-.15.93-.24.06-.02.13-.07.15-.12.06-.19.11-.39.16-.57-.24-.17-.48-.32-.7-.5-.43-.36-.74-.81-.94-1.33-.04-.11-.1-.14-.21-.16-.81-.16-1.21-1.02-.84-1.75.04-.08.04-.2.01-.28-.23-.62-.35-1.25-.27-1.9.02-.16.06-.32.12-.47.77-1.77,2.12-2.79,4.04-2.9,1.93-.11,3.39.76,4.36,2.44.32.55.35,1.13.23,1.73-.06.32-.12.64-.17.97,0,.07.02.15.06.21.31.4.39.83.18,1.29-.21.46-.58.69-1.09.71-.06,0-.16.05-.17.1-.31.8-.84,1.39-1.59,1.8-.01,0-.02.02-.04.04.05.19.1.4.16.59.02.06.1.11.17.12.91.25,1.82.49,2.72.75.75.22,1.26.68,1.41,1.48.05.3.1.61.1.91,0,.82-.01,1.65-.02,2.47,0,.31-.1.4-.42.41-.14,0-.28,0-.44,0v2.15c.1,0,.2,0,.3,0,.21,0,.34.12.34.33,0,.26.02.51,0,.77-.03.44-.31.68-.7.83h-10.21Zm.58-1.93h9.06v-.2c0-1.73,0-3.46,0-5.18,0-.32-.06-.38-.4-.38-2.75,0-5.5,0-8.25,0-.36,0-.41.05-.41.4,0,1.71,0,3.43,0,5.14v.22Zm.94-13.15s.06-.01.09-.02c.38-.08.74-.2,1.13-.21,1.25-.02,2.27-.47,2.99-1.56.39-.58,1.07-.64,1.57-.07.15.17.29.38.39.59.16.34.27.69.41,1.04.02.06.09.13.14.14.13.02.26,0,.4,0,.06-.35.11-.69.16-1.03.07-.42,0-.8-.2-1.17-1.47-2.71-5.27-2.83-6.94-.25-.53.83-.5,1.65-.17,2.53Zm3.57,3.98c1.6,0,2.86-1.37,2.68-2.96-.05-.47-.21-.93-.38-1.37-.14-.37-.33-.73-.54-1.06-.18-.27-.4-.25-.62,0-.04.05-.08.11-.11.16-.33.5-.76.89-1.29,1.17-.68.36-1.42.49-2.18.5-.12,0-.18.03-.22.16-.42,1.72.89,3.4,2.66,3.4Zm5.18,9.83h-10.35c0,.05,0,.09,0,.13,0,.48.03.52.5.52,3.09,0,6.19,0,9.28,0,.56,0,.62-.05.57-.65Zm-6.86-7.06c-.13-.19-.24-.34-.34-.48-.12-.16-.2-.39-.36-.45-.15-.06-.37.06-.56.11-.53.15-1.06.3-1.58.47-.47.15-.75.49-.82.99-.04.26-.07.52-.07.78,0,.66.01,1.32.02,1.98,0,.07,0,.14.01.21h.23c0-.09,0-.16,0-.23,0-.79,0-1.58,0-2.38,0-.67.34-1.01,1.01-1.01.8,0,1.6,0,2.45,0Zm7.12,3.62c0-.75,0-1.49,0-2.22,0-.11,0-.22-.01-.33-.1-.99-.32-1.27-1.29-1.56-.38-.12-.77-.22-1.15-.32q-.54-.15-.88.32c-.08.12-.17.23-.25.35-.03.04-.05.08-.08.14.8,0,1.57.02,2.34,0,.61-.02,1.07.37,1.05,1.06-.03.78,0,1.57,0,2.36v.22h.27Zm-6.32-5.88c-.05.17-.1.32-.12.48,0,.05.03.13.06.15.29.21.59.4.9.6.04.03.13.03.17,0,.29-.18.58-.38.87-.57.03-.02.07-.09.06-.12-.04-.18-.09-.36-.14-.55-.6.16-1.18.16-1.79.01Zm4.19-2.81c.37-.03.59-.29.56-.62-.03-.3-.28-.52-.56-.5v1.12Zm-4.37,4.83c.19-.12.36-.24.54-.36-.27-.18-.51-.33-.75-.5-.14-.1-.27-.11-.42-.02.21.29.41.58.63.88Zm1.68-.36c.19.13.36.24.54.36.21-.3.42-.59.63-.88,0-.02-.01-.04-.02-.05-.12.01-.25,0-.34.04-.27.15-.51.33-.8.53Zm-3.97-4.55c0-.16,0-.33,0-.5,0-.17.03-.33.04-.51-.24.1-.36.28-.36.52,0,.23.13.41.32.49Zm3.68,5.13c-.29-.24-.33-.24-.52,0h.52Z"/><path class="cls-1" d="m15.28,17.13h-.52c.19-.24.23-.24.52,0Z"/><path class="cls-1" d="m14.97,21.59c-.55,0-.98-.44-.97-.99,0-.54.45-.98.99-.98.54,0,.98.45.97,1,0,.55-.44.97-.99.97Zm.02-.63c.2,0,.35-.16.35-.35,0-.2-.17-.36-.36-.36-.2,0-.36.18-.35.37,0,.19.16.34.36.34Z"/></svg>