<?xml version="1.0" encoding="UTF-8"?><svg id="Layer_1" xmlns="http://www.w3.org/2000/svg" viewBox="0 0 30 30"><defs><style>.cls-1{fill:#5da6da;stroke-width:0px;}</style></defs><path class="cls-1" d="m6.74,15.74c.03-.12.05-.24.08-.36.22-.84.72-1.46,1.51-1.84.1-.05.14-.11.15-.22.12-1.45,1.34-2.67,2.78-2.78.1,0,.2-.02.3-.03.04-.18.07-.36.13-.54.37-1.22,1.41-2.07,2.71-2.2,1.19-.12,2.41.54,2.99,1.64.05.1.09.14.22.12,1.58-.28,3.01.78,3.22,2.38.01.1.04.14.14.18,1.46.53,2.4,1.96,2.28,3.47-.12,1.59-1.26,2.86-2.83,3.15-.18.03-.37.04-.56.05-.24,0-.38-.13-.39-.34,0-.21.14-.34.38-.35,1.15-.04,2.13-.72,2.53-1.76.59-1.53-.28-3.23-1.87-3.65-.3-.08-.36-.15-.36-.46-.01-1.39-1.36-2.36-2.69-1.94-.32.1-.45.04-.57-.27-.41-1.05-1.44-1.66-2.59-1.53-1.04.13-1.92,1.01-2.05,2.08-.01.08,0,.16-.01.24-.01.31-.15.44-.46.42-.69-.05-1.3.13-1.82.58-.54.48-.81,1.08-.82,1.81,0,.29-.05.37-.32.46-.87.31-1.45,1.14-1.4,2.03.05.96.69,1.74,1.63,1.93.35.07.73.04,1.09.06.24,0,.4.16.37.39-.02.16-.11.28-.26.29-.78.05-1.55.05-2.24-.41-.7-.46-1.12-1.1-1.25-1.93,0-.04-.02-.07-.03-.11,0-.19,0-.39,0-.58Z"/><path class="cls-1" d="m18.22,16.42c-.04.09-.06.17-.1.24-.09.14-.19.27-.28.41-.11.17-.05.31.15.35.16.03.33.06.49.09.21.05.31.16.31.37,0,.38,0,.76,0,1.15,0,.21-.1.33-.31.37-.18.04-.36.06-.54.1-.13.03-.2.19-.12.3.1.15.2.29.3.44.13.2.12.34-.04.51-.26.26-.52.53-.79.79-.17.16-.31.17-.51.04-.13-.09-.27-.18-.4-.27-.17-.11-.31-.05-.35.14-.03.17-.06.34-.09.51-.04.19-.16.29-.35.3-.39,0-.79,0-1.18,0-.19,0-.31-.1-.35-.29-.04-.18-.07-.36-.1-.54-.03-.15-.18-.22-.31-.13-.15.1-.3.21-.45.31-.17.11-.32.1-.47-.05-.27-.27-.54-.54-.81-.81-.15-.15-.16-.3-.05-.48.09-.14.2-.28.29-.42.1-.15.04-.3-.13-.33-.17-.03-.34-.06-.51-.09-.21-.04-.31-.16-.31-.37,0-.39,0-.77,0-1.16,0-.2.09-.31.29-.35.17-.04.35-.06.52-.1.18-.03.24-.19.14-.34-.1-.14-.2-.28-.29-.43-.11-.17-.1-.32.04-.47.27-.28.54-.55.82-.82.14-.14.3-.15.47-.04.14.09.28.2.43.29.16.11.31.04.34-.14.03-.17.06-.34.09-.51.04-.2.15-.3.36-.31.39,0,.77,0,1.16,0,.21,0,.32.11.36.32.03.16.06.33.09.49.03.18.18.25.34.15.14-.1.28-.2.42-.29.18-.12.33-.11.48.04.27.27.54.54.81.81.06.07.09.16.14.24Zm-.83.08c-.15-.16-.29-.3-.43-.46-.15.1-.29.2-.44.3-.13.09-.26.1-.41.03-.15-.07-.3-.13-.45-.18-.14-.05-.23-.14-.25-.29-.03-.18-.07-.37-.1-.55h-.62c-.04.18-.07.36-.1.53-.03.16-.12.25-.27.31-.14.05-.27.1-.4.16-.17.09-.32.07-.47-.04-.14-.1-.28-.19-.4-.27-.16.15-.3.29-.45.44.1.14.2.29.3.44.09.13.09.26.03.4-.06.14-.13.28-.18.43-.05.16-.16.25-.32.28-.17.03-.35.06-.52.1v.62c.17.03.33.06.5.09.18.03.3.12.36.3.04.13.1.26.16.39.08.16.07.3-.03.44-.1.14-.2.29-.28.41.16.16.3.3.44.45.13-.09.28-.19.41-.29.13-.1.27-.11.42-.04.14.07.29.12.43.18.15.05.24.15.27.31.03.18.07.36.1.54.18,0,.36,0,.53,0,.04,0,.09-.06.1-.1.04-.15.06-.29.09-.44.03-.16.12-.26.27-.31.14-.05.28-.1.42-.17.16-.08.3-.07.44.03.14.1.29.2.4.28.16-.15.31-.29.46-.43-.09-.13-.18-.27-.28-.41-.11-.15-.12-.29-.03-.45.06-.12.12-.25.16-.39.06-.18.17-.28.36-.3.14-.02.28-.04.41-.08.04,0,.09-.06.09-.1,0-.18,0-.35,0-.54-.18-.03-.35-.07-.52-.1-.17-.03-.28-.11-.34-.28-.05-.14-.11-.28-.17-.42-.07-.15-.07-.29.03-.42.1-.14.2-.29.29-.42Z"/><path class="cls-1" d="m13.28,18.43c0-.94.79-1.72,1.72-1.71.96.01,1.72.78,1.72,1.75,0,.94-.78,1.7-1.73,1.7-.95,0-1.71-.78-1.71-1.73Zm1.71-1.02c-.57,0-1.03.46-1.03,1.04,0,.56.47,1.02,1.03,1.03.57,0,1.04-.47,1.04-1.03,0-.57-.46-1.03-1.04-1.03Z"/></svg>