<?xml version="1.0" encoding="UTF-8"?><svg id="Layer_1" xmlns="http://www.w3.org/2000/svg" viewBox="0 0 30 30"><defs><style>.cls-1{fill:#5da4d8;stroke-width:0px;}</style></defs><path class="cls-1" d="m10.92,15.06c-.11,0-.2,0-.3,0-.05,0-.1,0-.19,0,.09.29.16.56.26.81.16.43.41.81.71,1.16.03.03.05.06.08.09.08.11.07.23-.02.31-.09.09-.22.09-.32-.02-.14-.16-.27-.31-.39-.48-1.87-2.67-.34-6.42,2.86-7.03.18-.03.36-.06.54-.07.29-.03.53.19.53.48,0,.36,0,.71,0,1.07,0,.25-.22.41-.47.37-.12-.02-.26-.03-.38,0-.33.09-.51.43-.43.76.08.32.41.53.74.46.37-.07.54.07.54.44,0,.4,0,.79,0,1.2h1.2c-.05-.42.06-.77.39-1.05.22-.18.48-.27.76-.25.6.04,1.11.63.99,1.3.12,0,.25,0,.37,0,.37,0,.59.27.51.63-.17.83-.55,1.54-1.11,2.17-.56.63-.94,1.36-1.12,2.19-.03.13-.04.27-.05.41,0,.54,0,1.07,0,1.61,0,.6-.4,1-1,1-.77,0-1.54,0-2.31,0-.6,0-1-.4-1-1,0-.43-.02-.86,0-1.3.03-.7-.19-1.33-.49-1.94-.02-.04-.04-.08-.06-.12-.06-.14-.03-.26.08-.32.11-.06.24-.02.31.11.23.4.39.83.5,1.28.02.08.04.16.06.25h1.52c0-.41.01-.8,0-1.2-.01-.3.21-.54.55-.45.26.07.52-.05.66-.29.14-.21.13-.47,0-.67-.15-.22-.41-.33-.66-.27-.33.07-.54-.1-.54-.43,0-.4,0-.8,0-1.22h-1.2c.05.43-.07.8-.43,1.07-.21.16-.46.24-.72.22-.33-.02-.59-.17-.78-.43-.19-.25-.25-.54-.21-.87Zm3.32-.45v-1.19c-.83-.03-1.29-.42-1.29-1.07,0-.28.09-.53.28-.73.27-.3.62-.39,1.02-.35,0-.32,0-.63,0-.93,0-.02-.08-.06-.13-.06-1.71.15-3.14,1.35-3.58,3.01-.12.43-.16.86-.12,1.32.2,0,.39,0,.59,0,.26,0,.43.22.38.47,0,.03-.02.07-.02.1-.03.27.06.49.3.63.23.14.47.14.69-.02.23-.16.31-.39.25-.67-.06-.32.1-.52.43-.52.4,0,.8,0,1.22,0Zm.46,3.79v1.18s.03.02.05.02c.46,0,.92,0,1.38,0,.04,0,.09-.06.1-.09.21-.95.67-1.77,1.32-2.5.43-.49.72-1.05.88-1.69.02-.08.03-.16.05-.26-.11,0-.19,0-.27,0-.08,0-.16,0-.24,0-.3,0-.46-.2-.4-.49.06-.28-.01-.51-.24-.68-.21-.16-.49-.17-.71-.02-.22.14-.33.4-.28.66.07.36-.07.54-.44.54-.35,0-.69,0-1.04,0-.05,0-.1,0-.15,0v1.2c.49-.06.86.1,1.12.51.23.36.24.75.01,1.11-.26.41-.64.59-1.14.52Zm1.47,2.93v-.44h-.17c-.6,0-1.2,0-1.8,0-.13,0-.24-.03-.28-.17-.05-.15.07-.28.26-.28.61,0,1.22,0,1.83,0,.05,0,.11,0,.16,0v-.38h-3.39v.38c.11,0,.21,0,.3,0,.16,0,.25.08.25.21,0,.14-.09.23-.25.23-.1,0-.2,0-.31,0v.44h3.4Zm-.03.46h-3.35c.06.23.22.38.44.38.82,0,1.65,0,2.47,0,.23,0,.4-.16.44-.38Z"/><path class="cls-1" d="m17.15,7.83c0,.34,0,.68,0,1.01,0,.36-.17.5-.53.45-.11-.02-.23,0-.34.01-.15.02-.26-.03-.29-.15-.03-.13.03-.25.18-.28.17-.04.34-.04.54-.07,0-.18,0-.38,0-.59,0-.1,0-.21,0-.31,0-.35.22-.55.58-.52.87.07,1.66.35,2.35.88,1.25.97,1.86,2.25,1.82,3.83,0,.33-.21.52-.54.52-.15,0-.31,0-.46,0-.31,0-.47-.2-.41-.5.08-.38-.12-.7-.48-.78-.34-.08-.67.13-.75.47-.02.1-.01.21,0,.31.05.31-.1.51-.42.51-.36,0-.72,0-1.09,0-.36,0-.6-.24-.61-.61,0-.34,0-.68,0-1.02-.15,0-.3,0-.43-.03-.48-.09-.83-.49-.87-.98-.01-.18.07-.29.21-.3.14,0,.22.08.24.26.04.41.38.67.79.58.32-.07.52.09.52.43,0,.35,0,.7,0,1.04,0,.11.03.19.16.19.34,0,.68,0,1.04,0-.05-.43.06-.8.41-1.07.22-.17.47-.25.75-.23.54.04,1.08.52.98,1.3.16,0,.31,0,.46,0,.02,0,.05-.09.05-.13.03-.83-.17-1.6-.61-2.29-.73-1.13-1.77-1.77-3.11-1.91-.03,0-.07,0-.13,0Z"/><path class="cls-1" d="m20.24,16.56c-.13,0-.26,0-.39-.02-.15-.01-.24-.1-.24-.23,0-.13.1-.22.25-.21.25,0,.49.02.74.04.15.01.24.11.23.24,0,.13-.11.21-.26.21-.11,0-.23,0-.34,0,0,0,0-.01,0-.02Z"/><path class="cls-1" d="m17.65,18.86s.12.08.15.16c.08.25.15.5.21.76.03.13-.04.24-.17.27-.11.03-.23-.03-.26-.16-.07-.25-.14-.5-.2-.76-.03-.15.07-.27.27-.27Z"/><path class="cls-1" d="m8.84,11.63c.23.04.49.08.75.13.12.02.19.14.17.26-.03.13-.11.19-.24.18-.26-.03-.53-.08-.79-.13-.13-.02-.19-.13-.18-.25.02-.12.11-.19.28-.18Z"/><path class="cls-1" d="m11.72,8.74c0-.17.07-.26.19-.27.12-.02.22.05.25.18.05.26.09.52.12.78.02.12-.07.23-.18.25-.13.02-.22-.04-.25-.16-.05-.27-.09-.54-.13-.77Z"/><path class="cls-1" d="m10.41,10.55c-.08-.05-.15-.07-.19-.12-.17-.16-.33-.33-.49-.49-.11-.11-.11-.24-.02-.33.09-.1.23-.09.34.02.17.17.35.33.5.51.05.06.07.18.05.25-.02.06-.11.11-.18.16Z"/><path class="cls-1" d="m19.14,17.82c.08.04.14.06.18.09.18.14.36.29.54.44.13.11.14.23.06.34-.09.1-.22.11-.34,0-.19-.15-.38-.29-.55-.46-.05-.05-.08-.17-.07-.25.02-.07.11-.11.17-.17Z"/></svg>