<?xml version="1.0" encoding="UTF-8"?><svg id="Layer_1" xmlns="http://www.w3.org/2000/svg" viewBox="0 0 30 30"><defs><style>.cls-1{fill:#5da6da;stroke-width:0px;}</style></defs><path class="cls-1" d="m4.19,10.99c.06-.2.1-.41.18-.6.35-.84.98-1.37,1.88-1.56.04,0,.08-.02.14-.04-.27-.32-.5-.65-.52-1.05-.03-.61-.08-1.25.02-1.84.19-1.09,1.29-1.83,2.36-1.69,1.16.15,2,1.1,1.97,2.25,0,.17,0,.34,0,.51.03.67-.09,1.29-.58,1.82.07.02.12.04.17.05,1.03.23,1.69.84,1.97,1.86.04.13.08.2.23.24.99.25,1.65,1.1,1.66,2.12,0,.39.03.79-.02,1.18-.16,1.15-1.05,1.92-2.22,1.94-.46,0-.91,0-1.37,0-.34,0-.64.12-.94.33.06.05.12.09.17.13.59.44.89,1.03.91,1.77,0,.29,0,.58,0,.86,0,.24-.15.41-.36.41-.21,0-.35-.16-.36-.41,0-.37.02-.75-.04-1.11-.11-.75-.77-1.25-1.54-1.22-.72.03-1.33.61-1.38,1.34-.03.33-.02.66-.01.99.02.9.63,1.51,1.53,1.53.29,0,.58.02.86,0,1.08-.06,1.97.27,2.58,1.22.44-.68,1.04-1.07,1.83-1.2,0-.03,0-.05-.02-.06-.41-.47-.56-1.03-.53-1.64.01-.37-.02-.75.05-1.11.19-1.07,1.12-1.81,2.21-1.78.18,0,.31-.03.45-.16.36-.34.81-.52,1.3-.6,0-.03,0-.04,0-.05-.43-.5-.57-1.08-.54-1.72.01-.31-.02-.62.03-.93.15-.94.7-1.56,1.61-1.83.05-.01.09-.03.17-.05-.04-.11-.07-.23-.12-.33-.32-.66-.85-1.03-1.58-1.04-.91-.02-1.83-.02-2.74,0-.29,0-.58.14-.86.24-.23.09-.43.06-.53-.12-.1-.19-.03-.38.19-.51.08-.05.16-.09.24-.12.22-.08.45-.15.7-.23-.28-.33-.49-.69-.53-1.12-.05-.62-.11-1.25.06-1.87.28-1.03,1.34-1.73,2.37-1.58,1.14.17,1.95,1.08,1.94,2.19,0,.15,0,.31,0,.46.02.96-.03,1.14-.56,1.93.11.03.21.05.3.07.95.27,1.55.87,1.81,1.82.04.13.08.2.23.24.97.24,1.64,1.06,1.67,2.05.01.45.04.91-.03,1.35-.16,1.08-1.07,1.82-2.19,1.84-.46,0-.93,0-1.39,0-.34,0-.65.12-.92.31,0,.02.01.03.02.04.75.51,1.1,1.21,1.05,2.12-.01.21,0,.42,0,.63,0,.24-.14.39-.35.4-.21,0-.36-.16-.37-.4,0-.29,0-.58,0-.86-.01-.77-.59-1.41-1.33-1.47-.77-.07-1.48.42-1.6,1.19-.07.48-.07.99,0,1.47.1.73.72,1.19,1.48,1.21.33,0,.66.01.99,0,1.03-.05,1.85.32,2.45,1.21.45-.68,1.06-1.08,1.88-1.2-.33-.38-.55-.79-.56-1.27-.01-.57-.04-1.15.07-1.7.22-1.05,1.23-1.71,2.33-1.63,1.03.08,1.89.94,1.97,1.98.03.36.02.72.02,1.07,0,.25-.16.4-.37.4-.2,0-.34-.16-.34-.4,0-.33,0-.66-.02-.99-.05-.63-.49-1.15-1.09-1.3-.61-.16-1.25.07-1.59.59-.11.17-.22.38-.23.58-.04.45-.07.92-.01,1.37.09.78.7,1.27,1.5,1.29.41,0,.82,0,1.22,0,1.48.01,2.56,1.11,2.56,2.59,0,.64,0,1.28,0,1.92,0,.22-.06.38-.26.49h-.21c-.2-.1-.26-.26-.26-.48.01-.64,0-1.28,0-1.92,0-1.09-.77-1.86-1.86-1.87-.84,0-1.69,0-2.53,0-1.09,0-1.85.77-1.86,1.87,0,.64,0,1.28,0,1.92,0,.22-.06.38-.26.49h-.21c-.2-.1-.26-.26-.26-.49.01-.64,0-1.28,0-1.92,0-1.09-.77-1.86-1.86-1.87-.84,0-1.69,0-2.53,0-1.09,0-1.85.78-1.86,1.87,0,.64,0,1.28,0,1.92,0,.22-.06.38-.26.49h-.21c-.19-.1-.26-.27-.26-.49.01-.64,0-1.28,0-1.92,0-1.09-.76-1.86-1.86-1.87-.84,0-1.69,0-2.53,0-1.09,0-1.85.78-1.86,1.87,0,.64,0,1.28,0,1.92,0,.22-.06.38-.26.49h-.46c0-.93,0-1.86,0-2.79.01-.03.03-.06.04-.1.21-1.06.84-1.73,1.87-2.04.09-.03.18-.04.3-.07-.48-.52-.61-1.12-.59-1.78,0-.15.02-.31.01-.46-.04-1.39.97-2.4,2.35-2.36.1,0,.22-.04.29-.1.33-.29.7-.49,1.13-.59.08-.02.16-.04.27-.06-.41-.46-.58-.98-.59-1.56,0-.25.02-.51,0-.76-.02-.67.22-1.23.71-1.69.31-.29.68-.46,1.1-.56-.01-.07-.02-.12-.04-.17-.23-.69-.9-1.19-1.63-1.2-.89-.01-1.77,0-2.66,0-1.09,0-1.85.78-1.86,1.86,0,.65,0,1.29,0,1.94,0,.21-.04.39-.26.45-.22.06-.36-.06-.46-.24,0-.84,0-1.69,0-2.53Zm2.35-4.15s0,0,0,0c0,.2-.02.41,0,.61.07.74.67,1.3,1.41,1.34.72.04,1.4-.49,1.5-1.21.06-.42.06-.86.03-1.28-.05-.79-.71-1.39-1.48-1.38-.77,0-1.41.59-1.47,1.37-.01.18,0,.37,0,.55Zm9.95.03s-.01,0-.02,0c0-.18,0-.35,0-.53-.02-.79-.69-1.43-1.48-1.43-.8,0-1.46.64-1.48,1.43,0,.32,0,.65,0,.97.01.78.59,1.4,1.38,1.47.72.07,1.4-.45,1.55-1.18.05-.24.04-.49.05-.73Zm3.47,6.64h-.03c0-.17,0-.34,0-.51-.03-.81-.69-1.43-1.5-1.43-.79,0-1.45.65-1.46,1.45,0,.32,0,.65,0,.97.01.75.57,1.35,1.34,1.44.7.09,1.4-.38,1.57-1.09.06-.27.06-.56.08-.83Zm-9.99,0s.02,0,.02,0c0,.18,0,.35,0,.53.04.79.7,1.41,1.48,1.41.79,0,1.45-.64,1.48-1.44,0-.33,0-.66,0-.99-.02-.74-.59-1.36-1.32-1.44-.73-.08-1.43.39-1.59,1.12-.06.26-.05.54-.07.81Z"/><path class="cls-1" d="m20.34,8.77c-.51-.54-.6-1.2-.57-1.9.02-.34,0-.68.08-1,.25-1.08,1.33-1.81,2.39-1.65,1.18.18,1.99,1.14,1.93,2.3,0,.1,0,.2,0,.3.04.72-.05,1.41-.58,1.99.1.02.17.04.25.05,1.13.26,1.94,1.25,1.96,2.41.01.7,0,1.41,0,2.11,0,.25-.14.41-.36.41-.22,0-.36-.15-.36-.4,0-.66,0-1.32,0-1.98,0-1.11-.77-1.88-1.89-1.88-.83,0-1.66-.01-2.49,0-.28,0-.56.09-.84.17-.23.06-.42.02-.5-.17-.09-.2,0-.4.22-.49.23-.09.48-.16.75-.25Zm3.15-1.91s-.02,0-.03,0c0-.2.02-.41,0-.61-.06-.73-.67-1.3-1.4-1.33-.74-.03-1.42.48-1.52,1.21-.06.42-.05.86-.03,1.28.04.75.63,1.31,1.38,1.37.69.06,1.36-.43,1.53-1.13.06-.26.05-.53.07-.79Z"/></svg>