<?xml version="1.0" encoding="UTF-8"?><svg id="Layer_1" xmlns="http://www.w3.org/2000/svg" viewBox="0 0 255.98 256"><defs><style>.cls-1{stroke-width:0px;}</style></defs><path class="cls-1" d="m33.68,11.81c1.67,8.39,5.1,11.58,13.24,12.65,2.56.34,4.02,1.96,4.07,4.74.06,3.83,0,7.66.02,11.48.04,8.28,5.42,13.67,13.73,13.68,39.88.01,79.75,0,119.63,0h3.27v89.76c-20.64-.64-37.57,6.77-49.5,23.71-11.95,16.98-13.13,35.4-5.51,54.59-3.78,2.6-7.51,3.76-12.02,1.12-3.74-2.18-7.96-3.52-11.87-5.43-1.63-.8-2.93-.67-4.49.06-4.67,2.18-9.43,4.17-14.1,6.34-1.92.89-3.65.93-5.6.02-4.74-2.23-9.52-4.4-14.38-6.36-1.21-.48-2.94-.44-4.16.05-4.78,1.91-9.48,4.04-14.15,6.21-2.01.94-3.79,1.02-5.84.06-5.72-2.66-11.5-5.19-17.3-7.69-2.33-1-3.39-2.58-3.38-5.15.03-60.98.01-121.97.05-182.95,0-6.78,2.8-12.34,8.3-16.91Zm72.71,132.33c7.12,0,14.24,0,21.37,0,4.27,0,8.55.06,12.82-.03,2.69-.05,4.49-1.93,4.43-4.34-.05-2.31-1.81-3.99-4.36-4.16-.53-.04-1.07-.01-1.6-.01-21.63,0-43.27,0-64.9,0-.8,0-1.78-.25-2.36.12-1.27.81-2.87,1.74-3.33,2.99-.41,1.12.14,3.12,1,4.02.89.92,2.68,1.34,4.08,1.36,10.95.1,21.9.06,32.85.06Zm-8.67-25.66c.75-.74,2.41-1.81,3.31-3.33,5.71-9.64,11.25-19.37,16.85-29.08.8-1.39,1.7-2.73,2.36-4.18.98-2.15.19-4.48-1.71-5.57-1.95-1.12-4.18-.59-5.64,1.37-.42.57-.75,1.21-1.1,1.82-5.43,9.39-10.86,18.78-16.29,28.17-.85,1.46-1.76,2.89-2.49,4.41-1.47,3.08.42,6.33,4.71,6.39Zm30.2-6.65c.01-3.65-2.47-6.67-5.51-6.69-3.01-.02-5.59,3.02-5.61,6.62-.02,3.58,2.54,6.68,5.54,6.71,3.02.02,5.57-3.01,5.58-6.64Zm-31.6-29.4c.01-3.57-2.56-6.66-5.56-6.67-3.03-.01-5.56,3-5.57,6.63,0,3.64,2.49,6.66,5.53,6.67,3.01.01,5.58-3.03,5.6-6.63Z"/><path class="cls-1" d="m230.51,199.86c-.06,25.93-21.23,46.95-47.22,46.88-25.94-.07-46.89-21.22-46.8-47.26.09-25.92,21.3-46.89,47.31-46.78,25.66.11,46.77,21.42,46.71,47.16Zm-51.45-23.65c-.65.17-1.16.31-1.68.43-6.72,1.58-11.13,7.16-10.96,13.86.16,6.58,5.04,12.25,11.71,13.27,2.53.39,5.14.17,7.72.22,3.7.06,6.1,2.08,6.18,5.2.09,3.23-2.38,5.45-6.17,5.48-4.8.03-9.61-.02-14.41.02-3.13.02-5.04,1.7-5.02,4.29.02,2.59,1.93,4.2,5.08,4.24,2.54.03,5.09,0,7.6,0,.29,4.46,1.55,6.28,4.22,6.39,2.65.11,3.79-1.42,4.78-6.45.49-.13,1-.27,1.51-.39,6.73-1.59,11.13-7.16,10.96-13.86-.17-6.57-5.05-12.26-11.71-13.26-2.53-.38-5.14-.17-7.72-.21-3.8-.07-6.26-2.24-6.18-5.48.08-3.14,2.46-5.18,6.17-5.2,4.8-.03,9.61.02,14.41-.02,3.11-.02,5.04-1.72,5.02-4.3-.02-2.57-1.95-4.19-5.09-4.23-2.54-.03-5.08,0-7.59,0-.29-4.5-1.53-6.28-4.23-6.39-2.81-.12-4.2,1.76-4.61,6.4Z"/><path class="cls-1" d="m116.1,7.34c21.99,0,43.98,0,65.98,0,13.77,0,22.76,8.98,22.79,22.7,0,3.47.02,6.95,0,10.42-.03,3.83-1.52,5.34-5.34,5.35-14.6.02-29.2,0-43.81,0-30.01,0-60.01,0-90.02,0-4.9,0-6.14-1.25-6.15-6.15,0-3.56.03-7.12-.01-10.69-.09-7.19-5.05-12.48-12.19-13.07-3.17-.26-4.99-1.93-4.88-4.48.11-2.56,2.02-4.08,5.24-4.08,22.79-.01,45.59,0,68.38,0Z"/></svg>