<?xml version="1.0" encoding="UTF-8"?><svg id="Layer_1" xmlns="http://www.w3.org/2000/svg" viewBox="0 0 255.98 256"><defs><style>.cls-1{stroke-width:0px;}</style></defs><path class="cls-1" d="m165.27,77.85c4.26-4.24,8.37-8.33,12.57-12.5-5.64-2.94-7.2-8-7.1-14.25.22-13.3.07-26.61.07-40.68,11.15,10.21,21.83,20,32.68,29.93.79-.76,1.52-1.42,2.21-2.11,9.93-9.92,19.82-19.89,29.79-29.77,5.16-5.11,13.17-3.11,14.94,3.66.77,2.94.08,5.6-1.88,7.91-.71.83-1.51,1.58-2.28,2.36C171.7,96.98,97.13,171.56,22.56,246.15c-.64.64-1.27,1.31-1.94,1.92-3.7,3.39-8.9,3.37-12.3-.04-3.41-3.41-3.48-8.68-.03-12.29,3.15-3.3,6.5-6.4,9.6-9.73.72-.78.99-2.13,1.12-3.26.15-1.34-.13-2.72-.13-4.09,0-60.44-.01-120.88,0-181.33,0-18.83,12.93-31.77,31.76-31.78,33.18-.01,66.35,0,99.53,0h3.16c0,1.18,0,2.23,0,3.28.02,15.59-.19,31.18.13,46.77.19,9.38,4.69,16.82,11.84,22.24Zm-60.06,13.08c7.37,0,14.74.01,22.11,0,5.62-.01,9.56-3.52,9.65-8.55.09-5.14-3.91-8.93-9.6-8.94-14.74-.03-29.48-.04-44.22,0-5.52.01-9.53,3.77-9.54,8.76-.01,5.02,3.98,8.71,9.49,8.73,7.37.02,14.74,0,22.11,0Zm-13.37,45.9c3.1,0,6.19.05,9.29-.01,5.1-.09,8.98-3.88,9-8.71.02-4.83-3.86-8.71-8.94-8.76-6.19-.07-12.38-.06-18.57,0-5.1.05-8.99,3.87-9.01,8.7-.02,4.81,3.88,8.67,8.95,8.77,3.09.06,6.19.01,9.29.01Z"/><path class="cls-1" d="m237.52,84.2c.04.89.09,1.34.09,1.79,0,44.85.06,89.7-.04,134.55-.03,14.19-9.6,25.98-23.4,29.24-2.37.56-4.87.8-7.31.8-52.5.04-105,.04-157.49.02-1.8,0-3.6-.24-5.9-.4.87-.98,1.36-1.59,1.91-2.13,21.2-21.21,42.39-42.43,63.66-63.57,1-1,2.8-1.67,4.24-1.68,19.5-.11,39.01-.07,58.51-.08,1,0,2.01.04,3-.07,4.72-.53,8.29-4.6,8.04-9.12-.25-4.67-4-8.28-8.83-8.29-14.04-.05-28.07-.02-42.11-.02-.98,0-1.96,0-3.41,0,.71-.86,1.11-1.42,1.58-1.89,8.31-8.32,16.59-16.67,24.99-24.9.91-.89,2.47-1.48,3.75-1.54,4.46-.19,8.93-.07,13.39-.07,6.11,0,9.82-2.69,10.57-7.66.69-4.63-2.35-8.41-8.26-10.05.5-.58.9-1.13,1.37-1.61,10.56-10.58,21.12-21.16,31.72-31.7.67-.67,1.59-1.53,2.41-1.54,9.09-.11,18.19-.07,27.5-.07Z"/></svg>