<?xml version="1.0" encoding="UTF-8"?><svg id="Layer_1" xmlns="http://www.w3.org/2000/svg" viewBox="0 0 255.98 256"><defs><style>.cls-1{stroke-width:0px;}</style></defs><path class="cls-1" d="m130.37,4.05c.03,9.51.08,19.02.09,28.53.02,9.11-.01,18.22,0,27.33.01,5.73,2.76,8.48,8.44,8.48,16.85.01,33.7,0,50.54,0h2.79v76.12c-5.34.37-10.59.31-15.68,1.18-8,1.37-14.69,5.52-20.41,11.25-13.22,13.23-26.68,26.23-39.53,39.81-3.77,3.98-7.33,5.33-12.59,5.22-16.52-.32-33.05-.12-49.58-.12-7.41,0-9.73-2.29-9.73-9.61,0-59.57.03-119.15-.06-178.72,0-4.42,1.22-7.66,5.38-9.48h80.32Zm-11.72,126.29c-3.55,0-7.09,0-10.64,0-9.11,0-18.21-.06-27.32.03-5.62.05-9.02,5.49-6.57,10.3,1.54,3.03,4.21,3.98,7.42,3.98,24.74-.02,49.48,0,74.22-.02.8,0,1.62-.06,2.4-.21,4.18-.8,6.69-5.23,5.26-9.25-1.1-3.1-3.63-4.82-7.31-4.82-12.49-.02-24.98,0-37.47,0Zm7.06-28.58c2.55,0,4.72.03,6.89,0,2.88-.05,5.15-1.22,6.55-3.8,2.57-4.76-.61-10.12-6.3-10.5-2.29-.15-4.6-.03-7.13-.03,0-2.22.05-4.06-.02-5.9-.04-1.2-.07-2.45-.42-3.57-1.01-3.23-4.38-5.19-7.81-4.69-3.23.46-5.79,3.24-5.95,6.65-.11,2.45-.02,4.91-.02,7.5-2.44,0-4.45-.04-6.46,0-4.66.12-7.82,2.99-7.88,7.1-.06,4.18,3.24,7.19,7.96,7.24,2.06.02,4.12,0,6.35,0,0,2.42-.02,4.5,0,6.58.06,4.48,2.91,7.56,7,7.62,4.15.06,7.07-2.89,7.22-7.39.07-2.16.01-4.33.01-6.82Zm-21.24,57.16c-7.89,0-15.78-.07-23.67.02-5.64.06-9.1,5.39-6.73,10.22,1.54,3.14,4.29,4.12,7.59,4.11,9.66-.03,19.32,0,28.98,0,5.56,0,11.11,0,16.67,0,3.13,0,5.68-1.08,7.17-4,2.44-4.79-.97-10.24-6.58-10.31-7.81-.1-15.62-.03-23.43-.03Z"/><path class="cls-1" d="m148.76,4.05c1.71,1.29,3.65,2.37,5.1,3.9,11.95,12.56,23.78,25.23,35.71,37.81,2.15,2.27,3.27,4.74,2.68,8.08h-47.37V4.05c1.29,0,2.58,0,3.87,0Z"/><path class="cls-1" d="m152.45,181.71c5.21-5.41,10.32-11.64,16.36-16.76,8.53-7.23,18.42-7.95,28.46-3.04,9.33,4.56,14.65,14.55,13.99,25.05-.4,6.23-2.65,11.62-6.93,16.05-5.09,5.27-10.42,10.3-15.42,15.21-12.15-12.16-24.41-24.44-36.47-36.51Z"/><path class="cls-1" d="m141.35,192.38c12.23,12.22,24.47,24.45,37.04,37.01-6.21,5.88-12.1,12.52-19.03,17.79-10.54,8-25.65,5.6-34.45-4.54-8.47-9.75-8.4-24.99.46-34.49,5.11-5.47,10.65-10.54,15.98-15.76Z"/></svg>