<?xml version="1.0" encoding="UTF-8"?><svg id="Layer_1" xmlns="http://www.w3.org/2000/svg" viewBox="0 0 255.98 256"><defs><style>.cls-1{stroke-width:0px;}</style></defs><path class="cls-1" d="m79.71,161.97c.46-11.24-.2-22.08,1.58-32.52,3.24-18.98,19.44-32.52,38.99-33.36,13-.56,26.06-.12,39.08.13,3.13.06,6.24,1.11,9.68,1.76-.59.78-.88,1.22-1.23,1.61-9.5,10.7-9.19,24.96.87,35.17,8.93,9.06,17.97,18.01,26.96,27.01,2.8,2.8,2.27,7.94-1.03,10.05-9.13,5.85-18.25,11.7-27.38,17.55-.65.42-1.32.8-2.14,1.29-.22-.4-.41-.7-.55-1.02-1.99-4.55-5.37-7.59-10.07-9.15-19.08-6.31-38.16-12.61-57.25-18.91-5.58-1.84-11.17-1.73-17.52.39Z"/><path class="cls-1" d="m138.76,8.55c17.86-1.73,40.16,14.48,40.29,39.8.11,22.25-17.94,40.37-40.25,40.43-22.26.06-40.5-18.03-40.43-40.27.09-25.87,22.79-41.74,40.38-39.97Z"/><path class="cls-1" d="m76.49,219.99c-7.42-11.63-14.71-23.06-22.09-34.64,1.46-.91,2.77-1.74,4.09-2.55,6.66-4.06,13.36-8.05,19.98-12.18,5.61-3.5,11.39-4.12,17.67-2.01,18.54,6.22,37.13,12.29,55.69,18.45,5.55,1.84,8.08,6.63,6.3,11.7-1.77,5.04-6.13,7.19-11.44,5.47-8.08-2.61-16.13-5.31-24.2-7.98-.52-.17-1.03-.37-1.55-.51-2.12-.57-3.85.27-4.52,2.18-.66,1.87.2,3.74,2.27,4.47,3.6,1.27,7.25,2.41,10.87,3.6,5.03,1.66,10.04,3.39,15.1,4.97,9.15,2.87,17.15-1.27,20.28-10.3.33-.94.98-1.99,1.78-2.52,11.52-7.47,23.07-14.88,34.65-22.26,3.79-2.42,8.18-2.05,11.24.77,2.92,2.7,3.79,7.24,1.75,10.71-.84,1.42-2.1,2.78-3.48,3.67-17.75,11.47-35.56,22.86-53.36,34.26-6.05,3.88-12.46,4.5-19.26,2.24-15.01-5-30.05-9.89-45.04-14.92-2.12-.71-3.83-.58-5.71.64-3.52,2.29-7.17,4.39-11.01,6.72Z"/><path class="cls-1" d="m200.51,156.62c-6.92-6.92-13.92-13.93-20.92-20.94-2.26-2.26-4.57-4.48-6.76-6.82-6.43-6.89-6.42-17.41-.05-24.21,6.47-6.91,17.03-7.57,24.35-1.53,3.39,2.8,3.99,2.8,7.35,0,7.02-5.87,17.38-5.42,23.86,1.02,6.51,6.48,7.43,17.11,1.14,23.77-9.26,9.8-19.14,19.02-28.98,28.7Zm3.82-28.6c2.52,0,4.76.04,7.01,0,2.47-.05,4.05-1.51,4-3.61-.05-2.02-1.56-3.37-3.94-3.41-2.25-.04-4.5,0-7.07,0,0-2.35.03-4.51,0-6.67-.05-2.78-1.34-4.34-3.51-4.34-2.15,0-3.51,1.61-3.56,4.32-.04,2.16,0,4.32,0,6.69-1.54,0-2.77,0-4,0-5.24,0-6.89.83-6.93,3.46-.04,2.68,1.69,3.59,6.82,3.59,1.3,0,2.6,0,3.81,0,.15.42.24.56.24.7.03,1.87.03,3.74.06,5.62.04,2.99,1.23,4.56,3.48,4.61,2.35.05,3.57-1.52,3.6-4.69.02-2.01,0-4.02,0-6.24Z"/><path class="cls-1" d="m22.24,197.19c7.51-4.79,14.79-9.44,22.26-14.2,10.75,16.85,21.39,33.52,32.15,50.38-7.45,4.75-14.79,9.44-22.26,14.21-10.72-16.81-21.36-33.49-32.14-50.39Z"/></svg>