<?xml version="1.0" encoding="UTF-8"?><svg id="Layer_1" xmlns="http://www.w3.org/2000/svg" viewBox="0 0 30 30"><defs><style>.cls-1{fill:#5da6da;stroke-width:0px;}</style></defs><path class="cls-1" d="m13.12,10.74c.45-.44.99-.55,1.59-.44,0-.09.01-.15.01-.21,0-.92,0-1.85,0-2.77,0-.13-.04-.18-.16-.24-.48-.21-.74-.71-.63-1.21.11-.52.55-.88,1.07-.87.51,0,.95.36,1.06.86.11.51-.14,1-.63,1.23-.06.03-.14.11-.14.17,0,.97,0,1.94,0,2.92,0,.03,0,.05.02.11.58-.09,1.13-.01,1.59.46.01-.12.03-.17.03-.22,0-.25-.01-.5,0-.75.02-.31,0-.54-.35-.72-.43-.22-.56-.79-.39-1.25.17-.45.63-.75,1.09-.71.49.04.9.4.99.87.09.49-.13.98-.58,1.18-.17.08-.22.17-.21.35.01.44,0,.88,0,1.32,0,.13.04.2.17.23.37.09.73.19,1.1.26.33.06.39.11.39.44,0,.23,0,.46,0,.69,0,.01.01.02.02.05.06,0,.12,0,.19,0,.3,0,.61-.01.91,0,.29.02.49-.02.65-.33.22-.43.77-.58,1.24-.42.46.16.77.62.74,1.09-.03.49-.39.91-.86,1-.49.1-.99-.13-1.2-.58-.08-.17-.17-.2-.34-.2-.42.01-.85,0-1.28,0-.02,0-.04.01-.07.02v1.6c.06,0,.12.01.18.01,1.11,0,2.23,0,3.34,0,.14,0,.2-.04.25-.17.21-.48.71-.73,1.21-.62.51.11.86.55.86,1.06,0,.52-.36.96-.87,1.07-.5.11-1-.15-1.21-.62-.04-.09-.06-.16-.19-.16-1.17,0-2.33,0-3.5,0-.03,0-.05,0-.03,0-.17.55-.34,1.08-.51,1.63.03,0,.1,0,.17,0,.56,0,1.12,0,1.68,0,.15,0,.22-.04.28-.18.21-.47.7-.71,1.2-.61.48.1.85.54.87,1.04.02.49-.31.93-.79,1.07-.52.15-1.06-.1-1.29-.6-.05-.12-.11-.16-.24-.16-.72,0-1.44,0-2.17,0-.09,0-.2.07-.26.13-.17.17-.32.36-.5.53-.11.11-.16.21-.16.37,0,.67,0,1.34,0,2,0,.13.02.21.16.27.49.21.73.73.62,1.24-.11.49-.56.84-1.06.84-.5,0-.96-.37-1.07-.86-.11-.51.14-1.02.63-1.23.12-.05.16-.11.16-.24,0-.52,0-1.04,0-1.56,0-.06,0-.12-.01-.19-.27.16-.51.32-.76.45-.23.12-.47.23-.72.32-.11.04-.15.09-.15.22,0,.96,0,1.92,0,2.88,0,.13.05.18.16.23.43.2.65.54.65,1.01,0,.43-.28.83-.68.99-.54.22-1.17-.03-1.41-.57-.23-.53,0-1.16.52-1.41.17-.08.2-.16.2-.33,0-.92,0-1.85,0-2.77,0-.13-.04-.19-.16-.25-.49-.23-.97-.48-1.47-.73,0,.03-.01.1-.01.16,0,.51,0,1.01,0,1.52,0,.15.05.22.18.28.46.21.7.71.6,1.21-.1.48-.54.85-1.04.86-.49.01-.93-.32-1.07-.8-.15-.52.1-1.06.61-1.29.12-.05.16-.11.16-.24,0-.7,0-1.39,0-2.09,0-.09-.06-.2-.12-.28-.17-.2-.34-.4-.53-.58-.07-.07-.18-.12-.27-.13-.72-.01-1.43,0-2.15,0-.14,0-.2.04-.25.17-.22.48-.73.73-1.24.61-.49-.12-.84-.56-.84-1.06,0-.51.37-.96.86-1.07.51-.11,1.01.14,1.22.62.06.13.13.17.27.17.57,0,1.13,0,1.7,0,.06,0,.13,0,.16,0-.17-.54-.34-1.07-.51-1.63,0,0-.06,0-.12,0-1.12,0-2.24,0-3.36,0-.12,0-.19.02-.24.15-.21.49-.72.75-1.22.63-.51-.11-.86-.55-.86-1.06,0-.52.36-.96.87-1.07.5-.11.99.15,1.21.63.04.09.07.16.19.16,1.16,0,2.32,0,3.48,0,.03,0,.05,0,.09-.01v-1.62c-.07,0-.14-.01-.21-.01-.38,0-.77,0-1.15,0-.15,0-.23.03-.3.18-.21.47-.71.71-1.2.6-.48-.1-.85-.54-.86-1.04-.01-.5.33-.95.81-1.08.51-.14,1.05.11,1.27.62.05.12.12.16.24.15.42,0,.84,0,1.26,0,.13,0,.18-.04.17-.17,0-.21,0-.42,0-.63,0-.27.07-.33.34-.38.38-.08.75-.17,1.12-.26.15-.03.2-.12.2-.27-.01-.44,0-.88,0-1.32,0-.15-.03-.24-.18-.3-.47-.21-.7-.71-.6-1.21.1-.48.54-.85,1.04-.86.49-.01.93.32,1.07.8.15.52-.1,1.06-.61,1.29-.12.05-.16.12-.15.24,0,.4,0,.8,0,1.19,0,.02.01.04.03.11Zm-1.68,1.15s0,.07,0,.11c0,1.03-.01,2.05,0,3.08,0,.32.06.67.18.97.61,1.54,1.78,2.5,3.29,3.07.07.03.17,0,.25-.02,1.22-.46,2.19-1.23,2.89-2.34.3-.47.5-.99.51-1.56.02-1.06,0-2.12.01-3.18,0-.11-.04-.15-.15-.17-.82-.13-1.56-.47-2.25-.91-.09-.06-.21-.09-.32-.09-.57,0-1.15,0-1.72,0-.11,0-.23.04-.32.09-.54.35-1.11.63-1.74.8-.21.06-.43.1-.65.15Zm3.04-5.79c0,.28.24.51.52.51.29,0,.53-.25.52-.53,0-.29-.25-.52-.54-.51-.28.01-.51.25-.5.53ZM6.1,14.48c-.28,0-.52.22-.53.5-.01.29.22.54.51.54.28,0,.53-.24.53-.53,0-.28-.24-.52-.52-.52Zm17.82,0c-.28,0-.52.23-.53.51,0,.28.24.53.52.53.28,0,.52-.23.52-.51,0-.29-.23-.53-.52-.53Zm-8.91,9.96c.29,0,.53-.25.52-.53,0-.28-.25-.51-.52-.51-.28,0-.52.24-.52.51,0,.29.24.53.52.53Zm-1.69-16.23c0-.29-.24-.53-.52-.53-.28,0-.51.24-.51.52,0,.29.23.53.52.53.28,0,.51-.23.51-.52Zm4.41,0c0-.28-.23-.52-.51-.52-.29,0-.53.23-.53.53,0,.29.23.52.51.52.29,0,.53-.23.53-.52Zm-9.52,4.08c-.29,0-.53.23-.53.52,0,.28.23.51.52.51.29,0,.53-.23.53-.52,0-.28-.23-.51-.52-.51Zm13.59,1.03c.28,0,.52-.22.52-.51,0-.29-.23-.53-.52-.53-.29,0-.52.22-.52.51,0,.29.23.53.52.53Zm-13.08,3.89c0-.29-.25-.52-.54-.51-.28,0-.51.24-.51.52,0,.29.25.52.54.51.28,0,.51-.24.5-.52Zm13.07.52c.29,0,.53-.23.53-.52,0-.28-.23-.51-.52-.51-.29,0-.53.23-.53.52,0,.28.23.51.52.51Zm-9.52,4.08c0,.28.23.52.51.52.29,0,.53-.23.52-.53,0-.28-.23-.52-.51-.52-.29,0-.53.23-.52.52Zm5.45,0c0-.29-.23-.53-.52-.53-.28,0-.51.23-.51.52,0,.29.23.53.52.53.28,0,.51-.23.51-.52Z"/><path class="cls-1" d="m16.49,14.19c.58.04.58.04.58.6,0,.57.03,1.14-.05,1.69-.15,1.04-1.14,1.76-2.19,1.67-1.04-.08-1.87-.95-1.89-2-.01-.52,0-1.04,0-1.56,0-.31.08-.4.39-.4.05,0,.11,0,.19,0,0-.3-.01-.59,0-.89.03-.58.29-1.02.8-1.29.51-.26,1.02-.24,1.5.07.45.29.67.73.68,1.26,0,.27,0,.55,0,.84Zm-3,.59c0,.46,0,.9,0,1.35.01.76.6,1.39,1.35,1.47.76.07,1.49-.42,1.6-1.18.08-.53.02-1.08.02-1.64h-2.97Zm2.41-.59c0-.34.03-.67,0-1-.05-.46-.44-.78-.89-.78-.46,0-.86.3-.92.77-.04.33,0,.67,0,1.01h1.82Z"/><path class="cls-1" d="m15.09,15.33c.06.05.21.13.31.25.11.13.11.32,0,.45-.12.13-.11.28-.11.43,0,.23-.11.36-.29.36-.17,0-.28-.14-.28-.35,0-.16-.02-.3-.12-.45-.19-.29.05-.69.49-.69Z"/></svg>