<?xml version="1.0" encoding="UTF-8"?><svg id="Layer_1" xmlns="http://www.w3.org/2000/svg" viewBox="0 0 30 30"><defs><style>.cls-1{fill:#5da6da;stroke-width:0px;}</style></defs><path class="cls-1" d="m22.59,24c-.07-.03-.14-.05-.21-.08-.66-.25-.96-1-.65-1.64.05-.1.04-.15-.03-.22-.31-.3-.61-.6-.91-.9-.15-.16-.17-.31-.04-.43.12-.11.26-.1.41.05.31.31.61.61.92.92.04.04.13.06.17.04.62-.33,1.43-.03,1.68.66.26.72-.21,1.44-.87,1.57-.02,0-.03.02-.04.03h-.42Zm.2-1.86c-.37,0-.67.31-.66.68,0,.36.31.66.67.66.37,0,.67-.3.67-.67,0-.37-.31-.67-.67-.66Z"/><path class="cls-1" d="m6,6.98s.04-.08.05-.13c.21-.67.92-1.03,1.57-.78.65.25.95,1,.65,1.64-.05.1-.04.15.04.22.31.3.61.6.91.9.15.16.17.31.04.43-.12.11-.26.09-.41-.06-.31-.31-.61-.61-.92-.92-.04-.04-.13-.06-.17-.04-.77.33-1.48,0-1.72-.81,0-.02-.02-.03-.03-.04,0-.14,0-.28,0-.42Zm1.86.22c0-.37-.3-.67-.66-.67-.36,0-.66.29-.67.65,0,.37.29.68.66.68.37,0,.68-.29.68-.66Z"/><path class="cls-1" d="m6,22.59s.04-.08.05-.13c.22-.71.99-1.06,1.66-.73.11.05.16.03.23-.05.29-.3.59-.6.89-.9.15-.15.29-.17.41-.06.13.12.11.27-.04.43-.31.31-.61.61-.92.92-.04.04-.06.13-.04.17.33.76,0,1.49-.79,1.71-.02,0-.04.02-.06.03h-.42c-.19-.1-.4-.18-.58-.31-.23-.16-.32-.42-.41-.68,0-.14,0-.28,0-.42Zm1.2.88c.37,0,.67-.31.66-.68,0-.36-.3-.66-.66-.66-.37,0-.67.3-.67.67,0,.37.3.67.67.67Z"/><path class="cls-1" d="m14.99,22.62c-.43,0-.86,0-1.28,0-.45,0-.69-.25-.7-.7,0-.25,0-.5,0-.76,0-.12-.04-.18-.15-.22-.19-.07-.37-.14-.55-.23-.12-.06-.19-.03-.27.05-.18.19-.36.37-.55.55-.3.29-.65.29-.95,0-.62-.62-1.24-1.23-1.85-1.85-.3-.3-.3-.65,0-.96.19-.19.37-.38.56-.56.07-.07.09-.14.04-.23-.09-.19-.17-.39-.24-.58-.04-.11-.1-.14-.21-.14-.26,0-.52,0-.77,0-.44,0-.68-.25-.68-.69,0-.86,0-1.72,0-2.58,0-.45.24-.7.69-.7.26,0,.52,0,.77,0,.1,0,.16-.04.2-.13.08-.2.17-.4.24-.6.02-.06,0-.16-.04-.21-.18-.2-.38-.38-.57-.58-.29-.3-.29-.65,0-.95.62-.62,1.24-1.24,1.86-1.86.29-.29.64-.29.93,0,.19.18.38.37.56.56.08.08.15.11.26.05.18-.09.38-.16.57-.23.1-.04.15-.09.15-.21,0-.26,0-.53,0-.79,0-.42.25-.66.67-.67.2,0,.4,0,.6,0,.2,0,.31.1.31.26,0,.16-.11.26-.3.26-.19,0-.38,0-.56,0-.14,0-.19.05-.18.19,0,.25,0,.5,0,.76,0,.37-.14.56-.48.69-.2.08-.39.16-.58.24-.29.13-.53.09-.76-.13-.19-.19-.39-.38-.57-.57-.09-.09-.15-.1-.25,0-.61.61-1.22,1.22-1.83,1.83-.1.09-.08.16,0,.25.19.18.38.37.56.56.24.24.27.47.14.79-.08.19-.16.39-.24.58-.13.32-.31.46-.67.46-.26,0-.52,0-.77,0-.13,0-.19.05-.19.18,0,.86,0,1.71,0,2.57,0,.13.05.18.18.17.26,0,.53,0,.79,0,.34,0,.53.14.65.46.08.21.17.41.26.62.12.28.08.53-.13.74-.19.19-.38.39-.57.57-.1.09-.11.16,0,.26.61.6,1.21,1.21,1.81,1.81.1.1.17.09.26,0,.18-.19.37-.38.56-.56.23-.23.47-.27.77-.13.2.09.41.18.62.26.28.11.43.31.44.61,0,.28,0,.55,0,.83,0,.13.04.18.17.18.86,0,1.72,0,2.58,0,.12,0,.17-.05.17-.17,0-.26,0-.53,0-.79,0-.35.14-.54.46-.67.2-.08.4-.16.6-.25.29-.13.53-.09.76.13.19.19.38.38.57.57.09.09.15.1.25,0,.61-.61,1.22-1.22,1.83-1.83.09-.09.09-.16,0-.25-.19-.18-.38-.37-.56-.56-.24-.24-.27-.47-.14-.79.09-.2.17-.4.25-.6.12-.31.31-.44.64-.45.26,0,.53,0,.79,0,.13,0,.19-.04.19-.18,0-.86,0-1.71,0-2.57,0-.13-.05-.18-.18-.18-.26,0-.53,0-.79,0-.34,0-.53-.14-.65-.46-.08-.2-.16-.4-.25-.6-.13-.31-.09-.54.15-.78.18-.18.36-.37.55-.55.1-.09.11-.16,0-.26-.61-.6-1.21-1.21-1.81-1.81-.1-.1-.17-.09-.26,0-.18.19-.37.38-.56.56-.24.23-.47.27-.77.14-.21-.09-.42-.18-.63-.26-.27-.11-.42-.31-.42-.6,0-.26,0-.52,0-.77,0-.22,0-.23-.22-.23-.21,0-.42,0-.63,0-.19,0-.31-.11-.3-.26,0-.15.11-.26.29-.26.26,0,.52,0,.77,0,.37.02.61.26.62.63,0,.28,0,.55,0,.83,0,.11.04.17.14.21.2.07.39.15.58.24.1.04.16.03.23-.04.19-.19.38-.38.57-.57.29-.28.64-.28.93,0,.63.62,1.25,1.25,1.88,1.88.28.28.28.64,0,.92-.18.19-.37.38-.56.56-.09.08-.11.16-.05.27.09.18.16.38.23.57.04.1.09.14.19.14.26,0,.53,0,.79,0,.43,0,.68.25.68.68,0,.87,0,1.75,0,2.62,0,.43-.25.67-.68.68-.26,0-.52,0-.77,0-.11,0-.17.03-.21.14-.07.2-.15.39-.24.58-.04.09-.04.16.04.23.19.19.38.38.57.57.28.29.29.65,0,.93-.62.63-1.25,1.25-1.88,1.88-.29.29-.64.28-.93,0-.19-.18-.38-.37-.56-.56-.08-.09-.15-.1-.26-.04-.18.09-.36.16-.55.23-.12.04-.16.11-.16.23,0,.24,0,.48,0,.72,0,.48-.24.72-.71.72-.43,0-.86,0-1.28,0Z"/><path class="cls-1" d="m14.98,19.3c-2.46,0-4.4-2.06-4.28-4.53.1-2.1,1.76-3.88,3.92-4.06,2.3-.2,4.27,1.42,4.62,3.58.22,1.34-.13,2.54-1.03,3.57-.13.15-.28.18-.4.09-.14-.11-.14-.27,0-.44.42-.47.7-1.02.85-1.63.59-2.4-1.32-4.73-3.79-4.65-1.84.06-3.46,1.48-3.64,3.4-.2,2.06,1.23,3.75,3.07,4.09.85.16,1.67.03,2.44-.37.04-.02.07-.04.11-.06.16-.08.31-.04.38.09.08.14.03.29-.14.38-.66.37-1.36.55-2.12.55Z"/><path class="cls-1" d="m22.79,8.42c-.16-.05-.33-.07-.48-.14-.12-.06-.18-.03-.26.05-.29.3-.59.6-.9.89-.07.07-.2.12-.29.1-.21-.04-.26-.28-.09-.45.3-.31.61-.62.92-.92.09-.08.1-.14.04-.25-.23-.49-.11-1.05.3-1.4.4-.35.98-.39,1.43-.1.44.29.64.83.49,1.34-.15.51-.62.86-1.16.88Zm.02-1.89c-.37,0-.67.3-.67.67,0,.36.29.66.65.67.37,0,.68-.29.68-.66,0-.37-.3-.67-.66-.68Z"/><path class="cls-1" d="m15.01,15.3c.22.25.43.49.63.73.05.06.11.16.1.23-.01.08-.08.18-.16.23-.11.07-.23.01-.31-.08-.25-.28-.5-.56-.74-.84-.03-.04-.06-.08-.09-.12-.02,0-.03.02-.05.03,0,.24,0,.49,0,.73,0,.2-.11.32-.27.32-.16,0-.26-.12-.26-.31,0-.8,0-1.59,0-2.39,0-.23.1-.32.32-.32.19,0,.39,0,.58,0,.49,0,.88.31.96.74.08.46-.16.86-.63,1.04-.02,0-.04.02-.09.03Zm-.59-1.29v.77c.15,0,.28,0,.42,0,.23-.02.4-.19.39-.39,0-.2-.18-.36-.41-.37-.13,0-.26,0-.4,0Z"/><path class="cls-1" d="m16.62,15.42c0,.27,0,.51,0,.75,0,.22-.1.34-.27.33-.16,0-.26-.12-.26-.33,0-.79,0-1.58,0-2.37,0-.23.1-.32.32-.32.22,0,.43,0,.65,0,.55,0,.97.44.97.97,0,.54-.43.95-.98.96-.13,0-.27,0-.43,0Zm0-.53c.17,0,.31,0,.46,0,.22-.01.4-.19.42-.4.02-.22-.12-.43-.34-.46-.17-.03-.35,0-.53,0v.87Z"/><path class="cls-1" d="m12.51,14.02v.72c.21,0,.41,0,.62,0,.22,0,.33.09.33.25,0,.17-.11.27-.33.27-.2,0-.4,0-.61,0v.71c.24,0,.48,0,.73,0,.15,0,.25.05.29.2.04.17-.07.32-.26.32-.35,0-.69,0-1.04,0-.16,0-.26-.1-.26-.27,0-.82,0-1.64,0-2.46,0-.17.1-.27.26-.27.35,0,.69,0,1.04,0,.17,0,.27.12.26.27,0,.15-.1.25-.28.25-.24,0-.49,0-.75,0Z"/></svg>