<?xml version="1.0" encoding="UTF-8"?><svg id="Layer_1" xmlns="http://www.w3.org/2000/svg" viewBox="0 0 30 30"><defs><style>.cls-1{fill:#5da6da;stroke-width:0px;}</style></defs><path class="cls-1" d="m18.13,25c-.36-.14-.66-.34-.75-.74-.03-.12-.03-.24-.03-.37,0-1,0-1.99,0-2.99,0-.07,0-.14,0-.24-.41,0-.79,0-1.18,0-.12,0-.24,0-.35-.02-.49-.1-.8-.5-.8-1.01,0-1.35,0-2.71,0-4.06,0-.07,0-.14,0-.22h-1.33v.22c0,1.1,0,2.2,0,3.3,0,.39-.15.68-.44.91-.44.34-.96.52-1.5.63-1.77.38-3.53.38-5.27-.14-.36-.11-.7-.3-1.02-.5-.31-.19-.44-.5-.44-.88,0-2.62.01-5.25,0-7.87,0-.5.2-.85.58-1.12.48-.34,1.02-.52,1.58-.64,1.7-.37,3.4-.36,5.06.21.37.13.71.34,1.03.57.3.21.43.54.42.92,0,1.16,0,2.32,0,3.48v.23h1.33v-.21c0-1.33,0-2.67,0-4,0-.7.4-1.1,1.1-1.1.4,0,.8,0,1.23,0,0-.08,0-.15,0-.22,0-1.01,0-2.02,0-3.03,0-.68.41-1.08,1.08-1.08,1.04,0,2.08,0,3.12,0,.18,0,.32.05.45.18.94.95,1.89,1.89,2.83,2.83.07.07.12.15.18.23v5.62c-.2.61-.64.81-1.26.81-1.77-.02-3.54,0-5.31,0-.69,0-1.09-.4-1.09-1.09,0-1.11,0-2.23,0-3.34v-.24c-.45,0-.86,0-1.28,0-.27,0-.39.12-.39.4,0,3.07,0,6.14,0,9.21,0,.26.13.38.38.39.38,0,.77,0,1.15,0,.04,0,.08-.01.13-.02v-.23c0-1.11,0-2.23,0-3.34,0-.67.4-1.07,1.06-1.08,1.05,0,2.09,0,3.14,0,.19,0,.33.06.46.2.91.92,1.82,1.82,2.73,2.74.09.09.17.19.26.28v5.62c-.12.43-.39.7-.82.82h-6.05Zm6.21-6c-.09,0-.16,0-.23,0-.58,0-1.16,0-1.74,0-.62,0-1.04-.43-1.04-1.05,0-.57,0-1.15,0-1.72,0-.07,0-.14,0-.22-.08,0-.14-.01-.19-.01-.9,0-1.8,0-2.69,0-.34,0-.44.1-.44.44,0,1.12,0,2.24,0,3.36,0,.06,0,.12,0,.19h1.03c.29-.85,1.01-1.07,1.56-.97.6.11,1.06.67,1.07,1.29,0,.62-.44,1.19-1.04,1.32-.69.15-1.24-.18-1.59-.95h-1.03c0,1.07,0,2.12,0,3.18,0,.38.1.48.47.48,1.8,0,3.59,0,5.39,0,.37,0,.47-.1.47-.47,0-1.55,0-3.1,0-4.65,0-.06,0-.13,0-.22Zm-6.32-8.98c0,.06,0,.12,0,.18,0,1.13,0,2.25,0,3.38,0,.33.1.43.43.43,1.82,0,3.63,0,5.45,0,.35,0,.45-.1.45-.46,0-1.56,0-3.11,0-4.67,0-.06,0-.13,0-.2-.08,0-.15,0-.23,0-.56,0-1.12,0-1.68,0-.67,0-1.09-.42-1.09-1.08,0-.57,0-1.13,0-1.7,0-.07,0-.14,0-.22-.07,0-.13,0-.18,0-.91,0-1.82,0-2.73,0-.31,0-.42.12-.42.43,0,1.02,0,2.03,0,3.05,0,.06,0,.12,0,.19h1.04c.28-.74.84-1.09,1.54-.97.6.1,1.06.63,1.09,1.26.03.62-.4,1.19-1.01,1.34-.3.08-.59.05-.88-.08-.38-.18-.62-.48-.75-.88-.32,0-.63,0-.95,0-.02,0-.05,0-.08.01Zm-5.01,1.9c-2.46,1.02-4.89,1.03-7.33,0,0,.52,0,1.06,0,1.6,0,.21.07.36.24.45.27.14.54.29.83.37,1.6.44,3.21.45,4.83.1.41-.09.79-.28,1.17-.45.11-.05.25-.2.25-.32.03-.59.01-1.18.01-1.74Zm-7.33,2.69c0,.45.04.88-.01,1.31-.06.51.19.76.62.92.07.03.14.06.22.08,1.69.54,3.4.54,5.12.16.38-.08.74-.26,1.1-.42.21-.09.31-.27.29-.52-.02-.27,0-.55,0-.82v-.7c-1.84,1.01-5.74.9-7.34,0Zm7.33,2.72c-2.45.92-4.89.92-7.33,0,0,.5,0,1.01,0,1.53,0,.19.06.34.22.42.26.13.52.28.79.36,1.59.46,3.21.47,4.82.13.42-.09.82-.28,1.22-.45.12-.05.26-.21.27-.32.03-.56.01-1.13.01-1.66Zm-3.53-7.66c-.93,0-1.71.07-2.48.3-.41.12-.82.26-1.15.56-.24.21-.25.41,0,.61.19.16.42.29.65.39.86.36,1.77.46,2.69.48.95.01,1.89-.07,2.78-.39.29-.1.57-.25.82-.43.3-.21.3-.44,0-.67-.2-.15-.42-.28-.66-.37-.89-.36-1.84-.45-2.66-.46Zm12.52-3.48c0,.48,0,.95,0,1.41,0,.28.13.4.41.4.43,0,.86,0,1.28,0,.04,0,.08-.01.1-.01-.6-.6-1.19-1.19-1.8-1.8Zm0,10.33c0,.5,0,.98,0,1.47,0,.22.14.34.37.34.45,0,.9,0,1.35,0,.03,0,.06-.02.07-.02-.59-.59-1.18-1.18-1.79-1.79Zm-1.67-7.52c-.37,0-.67.31-.66.67,0,.36.3.65.66.66.37,0,.67-.3.67-.66,0-.36-.31-.67-.67-.67Zm.67,11.32c0-.37-.31-.67-.68-.66-.37,0-.66.31-.65.68.01.36.31.65.67.65.37,0,.67-.31.66-.68Z"/><path class="cls-1" d="m7,13.33c0,.18-.15.34-.33.34-.18,0-.33-.16-.33-.34,0-.17.15-.32.33-.32.19,0,.33.14.34.33Z"/><path class="cls-1" d="m7,16c0,.19-.15.33-.33.33-.18,0-.32-.15-.33-.32,0-.18.15-.34.33-.34.18,0,.33.15.33.33Z"/><path class="cls-1" d="m7,18.67c0,.19-.15.33-.34.32-.18,0-.32-.15-.32-.32,0-.18.15-.34.33-.34.18,0,.33.15.33.34Z"/></svg>