<?xml version="1.0" encoding="UTF-8"?><svg id="Layer_1" xmlns="http://www.w3.org/2000/svg" viewBox="0 0 255.98 256"><defs><style>.cls-1{stroke-width:0px;}</style></defs><path class="cls-1" d="m189.44,64.52c-.89,21.24-7.59,39.62-18.6,56.54-4.57,7.03-10,13.33-16.55,18.62-17.29,13.97-36.36,13.81-53.29-.62-15.08-12.85-24.17-29.55-30.02-48.15-4.25-13.53-5.93-27.27-2.24-41.3,7.13-27.09,32.83-47.28,63.5-45.5,27.36,1.59,51.44,22.97,56.07,50.63.59,3.52.83,7.11,1.13,9.79Z"/><path class="cls-1" d="m204.84,151.38c-9.65-6.35-20.42-9.79-32.08-10.91-1.16,5.61-4.55,9.79-8.11,13.82-10.5,11.89-22.77,21.81-35.19,31.57-1.16.91-1.94.85-2.99-.07-10.76-9.46-21.73-18.71-32.26-28.43-4.91-4.53-9.31-9.76-11.02-16.78-.45-.02-.71-.07-.97-.04-40.59,4.6-69.43,40.46-65.06,81.12,1.39,12.92,8.04,22,20.62,26.26,9.29,3.15,18.94,3.9,28.64,3.93,37.93.13,75.86.15,113.8.15,10.58,0,21.16-.12,31.59-2.31,13.32-2.8,23.11-9.56,26.19-23.63.72-3.31,1.25-6.74,1.27-10.11.18-27.7-11.27-49.33-34.42-64.57Zm.26,61.67c.02,1.93-.88,2.78-2.77,2.77-3.66-.03-7.33,0-11.37,0,0,3.73-.08,7.28.03,10.83.07,2.41-.88,3.46-3.32,3.39-3.14-.09-6.28-.07-9.42,0-2.19.04-3.06-.96-3.01-3.1.07-3.57.02-7.14.02-11.1-3.9,0-7.39-.08-10.87.03-2.4.07-3.47-.86-3.4-3.31.09-3.05.1-6.1,0-9.15-.08-2.45.99-3.37,3.4-3.29,3.48.11,6.97.03,10.87.03,0-3.63-.01-7.09,0-10.55.02-3.25.36-3.61,3.5-3.63,3.05-.02,6.1.05,9.15-.02,2.17-.05,3.1.89,3.06,3.06-.07,3.58-.02,7.16-.02,11.14,3.69,0,7.24.08,10.79-.03,2.38-.07,3.48.78,3.38,3.27-.12,3.22-.06,6.46-.02,9.69Z"/></svg>