<?xml version="1.0" encoding="UTF-8"?><svg id="Layer_1" xmlns="http://www.w3.org/2000/svg" viewBox="0 0 255.98 256"><defs><style>.cls-1{stroke-width:0px;}</style></defs><path class="cls-1" d="m24.21,91.44c0-8.45.15-16.89-.03-25.34-.31-14.72,10.46-26.78,26.38-27.58,14.78-.75,28.94-4.18,42.19-10.97,7.19-3.68,13.81-8.21,19.88-13.55,2.45-2.15,4.8-4.5,7.55-6.21,6.09-3.78,13-2.63,18.96,2.28,5.89,4.85,11.78,9.77,18.13,13.95,10.85,7.13,23.02,11.11,35.83,13.06,5.03.77,10.12,1.16,15.17,1.8,13.93,1.76,23.46,12.16,23.5,26.19.04,17.84.36,35.71-.56,53.51-1.22,23.56-6.19,46.35-17.57,67.37-10.04,18.54-24.04,33.38-41.62,44.92-11.7,7.69-24.28,13.59-37.44,18.29-3.79,1.35-7.65,1.78-11.48.48-22.52-7.65-43.02-18.75-59.98-35.72-16.88-16.89-27.41-37.33-33.1-60.38-5.03-20.41-6.22-41.21-5.79-62.13Zm164.81,36.61c.15-33.41-27.31-60.92-60.95-61.07-33.42-.14-60.91,27.31-61.05,60.96-.14,33.44,27.28,60.91,60.95,61.06,33.41.15,60.9-27.3,61.05-60.96Z"/><path class="cls-1" d="m128.11,81.36c25.82.17,46.83,21.3,46.54,46.8-.29,25.83-20.97,46.46-46.61,46.51-25.61.05-46.75-21.1-46.68-46.7.07-25.72,21.19-46.78,46.75-46.61Zm-10.54,56.57c-2.9-2.95-5.2-5.37-7.58-7.71-3.37-3.32-7.63-3.48-10.62-.48-2.91,2.92-2.71,7.33.55,10.64,3.69,3.75,7.43,7.45,11.15,11.16,4.3,4.29,8.01,4.29,12.33-.03,10.43-10.42,20.85-20.85,31.27-31.29.62-.62,1.26-1.24,1.77-1.94,2.03-2.81,1.68-6.77-.75-9.2-2.55-2.56-6.47-2.83-9.37-.61-.75.58-1.43,1.27-2.1,1.95-8.34,8.34-16.69,16.67-25.01,25.04-.61.61-.98,1.46-1.64,2.47Z"/></svg>