<?xml version="1.0" encoding="UTF-8"?><svg id="Layer_1" xmlns="http://www.w3.org/2000/svg" viewBox="0 0 255.98 256"><defs><style>.cls-1{stroke-width:0px;}</style></defs><path class="cls-1" d="m104.74,4c4.68,0,9.36,0,14.04,0,.61.14,1.22.37,1.84.42,8.72.67,17.21,2.44,25.5,5.25,67.24,22.81,94.39,103.03,54.85,162.09-.43.64-.81,1.31-1.26,2.05,7.17,4.82,14.22,9.49,21.2,14.27,9.53,6.53,18.81,13.38,26.49,22.12,1.3,1.48,2.43,3.27,3.08,5.12,3.18,8.98,1.11,16.96-5.07,24-1.43,1.63-3.07,3.09-4.61,4.63-10.81,10.78-23.73,10.72-34.41-.12-9.8-9.95-17.46-21.52-25.18-33.05-2.46-3.67-4.91-7.35-7.43-11.12-.91.57-1.67,1.03-2.4,1.52-15.33,10.24-32.2,16.28-50.56,17.69-28.57,2.2-54.32-5.47-76.68-23.5-20.55-16.58-33.3-38.01-38.23-64-.79-4.17-1.27-8.41-1.89-12.61,0-4.68,0-9.36,0-14.04.39-3.02.72-6.06,1.19-9.07,3.25-20.92,11.75-39.43,25.82-55.24C47.38,22.03,67.68,10.46,91.88,5.91c4.26-.8,8.57-1.28,12.86-1.91Zm86.49,107.59c-.23-44.33-35.89-79.73-80.1-79.52-44.04.21-79.24,36.1-79.03,80.57.21,43.14,36.21,78.69,79.6,78.59,43.95-.1,79.75-35.95,79.53-79.64Z"/><path class="cls-1" d="m111.78,128.83c11.68.5,23.39.69,35.04,1.6,10.06.79,17.87,10.62,17.11,20.65-.05.72-.54,1.49-1.02,2.09-25.97,32.57-76.62,32.53-102.55-.11-.67-.84-1.07-2.18-1.01-3.25.65-11.21,7.37-18.68,18.55-19.55,10.6-.82,21.28-.75,31.92-1.06.64-.02,1.29,0,1.94,0,0-.12,0-.25.01-.37Z"/><path class="cls-1" d="m143.26,89.9c.07,17.33-14.12,31.63-31.46,31.7-17.35.07-31.66-14.1-31.73-31.43-.07-17.52,14.1-31.8,31.58-31.82,17.37-.02,31.54,14.12,31.62,31.54Z"/></svg>