<?xml version="1.0" encoding="UTF-8"?><svg id="Layer_1" xmlns="http://www.w3.org/2000/svg" viewBox="0 0 1366 768"><defs><style>.cls-1{stroke-width:0px;}</style></defs><path class="cls-1" d="m468.12,257.85c1.35,1.01,2.21,1.51,2.9,2.19,12.23,12.1,24.42,24.24,36.66,36.32,1.8,1.78,3.05,3.73,2.87,6.28-.37,5.37-6.16,8.07-10.61,4.98-.86-.6-1.61-1.38-2.36-2.13-12.05-12.03-24.09-24.07-36.11-36.13-.68-.69-1.2-1.54-1.96-2.54-1.09,1.03-1.79,1.66-2.46,2.33-12.29,12.29-24.59,24.57-36.86,36.88-1.99,1.99-4.17,3.28-7.09,2.68-5.03-1.03-7.11-6.64-3.95-10.72.65-.84,1.44-1.56,2.19-2.31,12.02-11.93,24.03-23.87,36.09-35.77.68-.67,1.68-1.03,2.67-1.6-4.63-4.62-8.52-8.49-12.4-12.38-9.09-9.09-18.17-18.2-27.3-27.26-1.74-1.73-2.82-3.67-2.66-6.1.17-2.54,1.27-4.66,3.77-5.64,2.55-.99,5.05-.8,7.26.98.69.55,1.3,1.21,1.92,1.83,12.04,12.04,24.09,24.07,36.11,36.13.68.69,1.2,1.54,1.96,2.53,1.09-1.03,1.79-1.66,2.45-2.32,12.29-12.29,24.6-24.57,36.86-36.89,2-2,4.17-3.26,7.09-2.68,4.94.98,7.08,6.39,4.12,10.5-.62.86-1.41,1.59-2.16,2.34-12.1,12.11-24.2,24.21-36.31,36.3-.63.62-1.38,1.12-2.72,2.19Z"/><path class="cls-1" d="m764.62,244.52c4.06.53,8.14.96,12.19,1.61,49.24,7.93,86.06,33.82,108.17,78.39,23.23,46.81,20.7,93.73-5.81,138.68-35.92,60.9-72.56,121.37-108.9,182.02-6.44,10.74-16.57,10.89-23.13.32-37.29-60.08-74.57-120.17-111.85-180.25-17.57-28.31-25.08-59.09-21.46-92.21,3.88-35.44,19.04-65.51,45.12-89.94,19.17-17.96,41.71-29.64,67.3-35.26,7.36-1.62,14.93-2.26,22.4-3.35,5.32,0,10.65,0,15.97,0Zm-6.16,373.56c.82-1.28,1.48-2.23,2.08-3.23,32.72-54.62,65.46-109.22,98.13-163.87,15.01-25.1,20.95-52.13,16.16-81.14-6.47-39.18-27.34-68.74-62.18-87.29-35.9-19.12-73.1-19.54-109.55-1.26-34.52,17.31-55.97,45.55-63.85,83.39-6.56,31.51-.4,60.96,16.57,88.26,33.47,53.86,66.87,107.75,100.31,161.63.69,1.11,1.45,2.17,2.34,3.5Z"/><path class="cls-1" d="m756.44,460.09c-39.68-.16-71.78-32.42-71.65-72.02.13-39.54,32.59-71.83,72.05-71.67,39.55.16,71.78,32.59,71.64,72.09-.14,39.65-32.46,71.77-72.05,71.61Zm-47.78-72.01c-.08,26.52,21.19,47.99,47.67,48.14,26.69.15,48.23-21.28,48.23-47.97,0-26.44-21.46-47.96-47.87-47.98-26.44-.03-47.96,21.4-48.04,47.82Z"/><path class="cls-1" d="m1054.64,206.33c12.37,2.41,21.27,10.2,29.71,18.86,14.95,15.34,30.42,30.2,45,45.88,13.7,14.74,13.63,34.64.14,49.62-9.35,10.38-19.5,20.04-29.46,29.86-2.02,1.99-2.48,3.37-1.2,6.05,9.96,20.85,24.38,38.45,39.97,55.18,15.95,17.12,33.48,32.45,53.25,45.06,5.4,3.45,11.21,6.25,16.75,9.49,1.89,1.1,3.01.77,4.5-.75,8.39-8.54,16.66-17.23,25.46-25.33,4.75-4.37,10.05-8.7,15.88-11.25,15.02-6.57,28.77-2.9,40.27,8.23,16.65,16.14,32.79,32.81,49.33,49.06,17.12,16.82,18.58,39.1,2.67,56.26-11.73,12.65-23.68,25.17-36.45,36.73-13.67,12.37-30.73,15.43-48.72,13.99-28.24-2.27-54.09-12.25-79.14-24.74-37.15-18.52-70.88-42.01-100.55-71-44.6-43.59-80.52-93.07-101.01-152.66-5.73-16.66-9.28-33.73-8.81-51.47.44-16.67,5.84-31.35,17.57-43.39,10.21-10.47,20.54-20.82,30.98-31.05,6.7-6.57,14.8-10.74,24.03-12.64h9.83Zm213.77,367.78c11.82.27,22.69-2.72,31.26-11.01,11.31-10.95,22.3-22.26,32.96-33.84,7.87-8.55,7.82-18.11-.21-26.38-17.04-17.53-34.38-34.78-51.84-51.89-6.66-6.53-15.12-6.72-22.75-1.29-2.04,1.45-3.88,3.22-5.66,4.99-9.39,9.32-18.7,18.73-28.11,28.04-6.26,6.2-12.89,7.24-20.66,3.26-5.6-2.87-11.24-5.71-16.61-8.97-23.46-14.19-44.08-31.88-62.68-51.92-17.63-18.99-33.73-39.1-44.44-63.02-4.59-10.25-3.5-15.81,4.61-23.64,9.52-9.19,19.08-18.35,28.23-27.91,9.61-10.05,9.41-18.5.08-28.83-.34-.37-.67-.75-1.03-1.11-15.68-15.69-31.32-31.42-47.1-47.02-2.38-2.35-5.18-4.57-8.2-5.93-8.97-4.06-16.14-.08-22.43,6.09-9.44,9.27-19.04,18.42-27.97,28.17-4.34,4.73-8.25,10.31-10.72,16.19-5.27,12.54-3.82,25.75-1.21,38.69,4.98,24.66,14.49,47.72,26.82,69.47,44.09,77.74,105.81,136.53,187.98,172.91,19,8.41,38.74,14.21,59.7,14.94Z"/></svg>