<?xml version="1.0" encoding="UTF-8"?><svg id="Layer_1" xmlns="http://www.w3.org/2000/svg" viewBox="0 0 255.98 256"><defs><style>.cls-1{stroke-width:0px;}</style></defs><path class="cls-1" d="m174.06,205.4c1.76,1.56,3.19,2.67,4.42,3.95,6.26,6.52,6.16,15.41.06,22.01-8.41,9.09-17.95,16.36-30.29,19.06-19.73,4.32-37.01-.51-51.43-14.68-14.61-14.35-28.99-28.94-43.47-43.42-10.83-10.83-21.66-21.66-32.49-32.5-22.37-22.39-22.41-55.78-.09-78.27,1.33-1.34,2.66-2.7,4.02-4.01,6.21-5.96,15.63-5.99,21.89-.02,1.29,1.24,2.38,2.69,3.99,4.54,7.21-27.04,21.85-47.88,44.94-62.33C118.74,5.27,143.94.87,170.63,6.3c45.37,9.23,78.99,48.59,81.18,94.89,2.31,48.94-29.58,91.98-77.74,104.22ZM21.94,92.61s-1.35,1.81-1.87,2.58c-11.92,17.83-10.08,41.71,5.02,57.01,26.1,26.46,52.36,52.77,78.86,78.83,11.16,10.97,24.99,14.59,40.43,11.79,11.46-2.08,20.26-8.55,27.91-16.93,3.44-3.77,3.52-7.46-.09-11.09-8.13-8.18-16.28-16.33-24.45-24.46-3.81-3.79-7.54-3.71-11.45.07-.8.77-2.73,2.14-2.73,2.14,0,0-5.74,5.9-7.34,6.62-8.78,3.96-16.01,2.56-22.81-4.21-6.7-6.68-13.38-13.38-20.07-20.08-7.66-7.67-15.38-15.28-22.96-23.03-7.66-7.83-7.58-18.96.03-26.82,1.79-1.86,3.67-3.63,5.46-5.49,3.53-3.65,3.58-7.52.02-11.1-8.19-8.24-16.41-16.44-24.65-24.62-3.55-3.52-7.27-3.51-10.9-.15-.95.87-3.28,2.67-3.28,2.67l-5.13,6.28Zm94.31-.26c-.17-.28-.33-.56-.5-.83,4.08-3.93,8.28-7.73,12.19-11.82,4.92-5.15,5.38-12.73,1.43-18.53-3.67-5.38-10.7-7.41-17.21-4.96-6.6,2.48-11.36,9.57-10.61,15.81.26,2.2,1.59,3.46,3.7,3.64,2.11.18,3.66-.85,4.23-2.98.25-.91.26-1.87.44-2.8.71-3.68,4.16-6.44,7.98-6.4,3.05.02,5.21,1.95,5.74,5.2.4,2.43-.62,4.32-2.29,6-6.01,6.03-11.97,12.11-18,18.12-1.55,1.54-2.36,3.23-1.49,5.32.84,2.01,2.64,2.52,4.68,2.51,6.79-.02,13.59.02,20.38-.02,3.14-.02,5.15-1.76,5.09-4.25-.06-2.46-1.92-3.97-5.01-3.99-3.59-.03-7.18,0-10.76,0Zm73.26-28.2c-.19-2.4-1.14-3.82-3.15-4.31-2.53-.61-4.02.74-5.13,2.86-13.64,26.02-27.31,52.03-40.95,78.05-1.43,2.72-.91,5.08,1.25,6.25,2.23,1.21,4.62.25,6.09-2.53,13.63-25.93,27.25-51.86,40.86-77.8.47-.89.77-1.88,1.03-2.51Zm-39.96,25.75c0,2.36-.09,4.49.02,6.61.12,2.35,1.75,3.95,3.89,4.04,2.08.09,3.85-1.46,4.22-3.74.08-.51.09-1.03.09-1.54,0-11.61,0-23.23.01-34.84,0-2.22-.44-4.21-2.76-5.02-2.41-.84-4.04.41-5.46,2.3-6.2,8.25-12.45,16.46-18.72,24.65-1.24,1.62-2,3.3-1.07,5.23.94,1.95,2.71,2.37,4.77,2.33,4.88-.08,9.77-.03,15.01-.03Zm42.2,24.71c-.75,1.19-1.22,1.98-1.73,2.75-6.05,8.98-12.12,17.94-18.11,26.95-.72,1.09-1.57,2.66-1.27,3.71.38,1.35,1.64,2.83,2.91,3.46,1.8.9,3.49-.14,4.61-1.79,3.33-4.9,6.64-9.82,9.96-14.73,4.85-7.19,9.74-14.36,14.54-21.59,2.28-3.44.69-6.94-3.19-6.98-8.25-.09-16.5-.06-24.75,0-2.46.02-4.19,1.73-4.26,3.94-.07,2.15,1.64,3.99,4.02,4.25.77.08,1.55.04,2.32.04,4.81,0,9.62,0,14.95,0Z"/></svg>