<?xml version="1.0" encoding="UTF-8"?><svg id="Layer_1" xmlns="http://www.w3.org/2000/svg" viewBox="0 0 255.98 256"><defs><style>.cls-1{stroke-width:0px;}</style></defs><path class="cls-1" d="m77.53,19.14c7.28.04,14.56.13,21.84.12,20.93-.02,41.86-.07,62.79-.12l-.08-.08c.01,7.38,0,14.76.05,22.13.03,6.06,4.21,10.59,9.72,10.59,5.53,0,9.69-4.5,9.73-10.59.04-7.38.04-14.76.05-22.13l-.08.08c5.47.06,10.96-.12,16.41.24,18.17,1.2,31.85,13.87,33.61,32.05.96,9.95.33,20.05.41,30.08,0,.79,0,1.58,0,2.76-8.24-.73-16.03.74-24.06-2.56-25.41-10.44-50.92-9.74-76.07,1.54-1.16.52-2.5.91-3.75.91-39.93.05-79.87.04-119.8.03-.49,0-.99-.05-1.87-.11,0-1.45-.01-2.83,0-4.21.12-9.93-.65-19.96.55-29.76,2.25-18.31,17.17-30.68,35.66-30.86,5.17-.05,10.33-.08,15.5-.12l-.07-.1c.07,1.71.19,3.42.2,5.13.03,5.96-.12,11.93.07,17.89.18,5.48,4.57,9.7,9.7,9.71,5.33,0,9.62-4.29,9.67-9.98.07-7.58-.05-15.16-.09-22.74,0,0-.08.07-.08.07Z"/><path class="cls-1" d="m6.42,103.81h95.01c-34.18,41.67-35.99,84.66-5.84,129.39-.53.05-1.38.18-2.22.18-16.82.01-33.63.06-50.45,0-21.15-.08-36.49-15.56-36.5-36.77-.01-29.79,0-59.58,0-89.37,0-1.09,0-2.18,0-3.43Z"/><path class="cls-1" d="m162.15,19.14c.04-1.61-.13-3.26.15-4.83.87-4.85,5.47-8.32,10.3-7.95,4.73.37,8.61,4.32,8.94,9.14.08,1.2,0,2.42,0,3.63,0,0,.08-.08.08-.08-6.52,0-13.03,0-19.55,0l.08.08Z"/><path class="cls-1" d="m58.13,19.15c.11-1.51.11-3.03.36-4.52.86-5.13,5.32-8.65,10.32-8.26,4.86.38,8.68,4.41,8.89,9.46.05,1.1-.1,2.21-.16,3.31,0,0,.08-.07.08-.07-6.52,0-13.03-.01-19.55-.02l.07.1Z"/><path class="cls-1" d="m172.06,93.94c-43.03-.11-78.02,34.77-78.05,77.8-.03,42.9,34.75,77.81,77.63,77.93,43.02.11,78.03-34.79,78.06-77.81.03-42.92-34.74-77.81-77.64-77.92Zm35.03,80.72c-1.2,4.02-4.9,6.79-9.39,6.85-5.25.07-10.5.02-16.13.02,0,5.67.09,11.11-.03,16.54-.1,4.39-3.12,8.01-7.24,9.06-4.09,1.05-8.45-.47-10.51-4.15-.99-1.76-1.5-3.98-1.59-6.03-.22-5.03-.07-10.08-.07-15.42-5.22,0-10.16.02-15.1,0-6.4-.02-10.9-4.08-10.87-9.76.03-5.73,4.45-9.67,10.92-9.69,4.86-.02,9.72,0,15.05,0,0-5.28-.02-10.22,0-15.17.03-6.41,4.09-10.88,9.81-10.81,5.61.06,9.61,4.48,9.64,10.69.03,4.96,0,9.91,0,15.3,5.49,0,10.81-.08,16.14.02,6.74.13,11.25,6.26,9.36,12.57Z"/></svg>