<?xml version="1.0" encoding="UTF-8"?><svg id="Layer_1" xmlns="http://www.w3.org/2000/svg" viewBox="0 0 255.98 256"><defs><style>.cls-1{stroke-width:0px;}</style></defs><path class="cls-1" d="m112.85,65.41c0,9.58.02,19.16,0,28.73-.03,11.47-7.22,18.72-18.63,18.73-19.39.03-38.77.03-58.16,0-11.3-.02-18.59-7.26-18.61-18.51-.03-19.47-.03-38.94,0-58.41.02-11.17,7.27-18.47,18.39-18.49,19.54-.04,39.09-.04,58.63,0,11.12.02,18.33,7.32,18.37,18.5.04,9.81,0,19.63,0,29.44Z"/><path class="cls-1" d="m185.52,112.88c-9.58,0-19.15.02-28.73,0-11.46-.03-18.72-7.22-18.73-18.63-.03-19.39-.03-38.78,0-58.17.02-11.4,7.27-18.61,18.73-18.62,19.31-.02,38.62-.02,57.93,0,11.47.01,18.72,7.2,18.73,18.62.03,19.39.03,38.78,0,58.17-.02,11.42-7.27,18.6-18.74,18.63-9.73.02-19.47,0-29.2,0Z"/><path class="cls-1" d="m17.43,185.63c0-9.66-.02-19.31,0-28.97.04-11.29,7.27-18.54,18.56-18.56,19.47-.03,38.93-.03,58.4,0,11.14.02,18.42,7.29,18.44,18.44.04,19.55.05,39.1,0,58.64-.03,11-7.33,18.3-18.32,18.33-19.62.04-39.25.05-58.87,0-10.84-.03-18.14-7.36-18.2-18.2-.06-9.89-.01-19.78-.01-29.68Z"/><path class="cls-1" d="m185.68,238.57c-4.78-.16-8.94-1.79-12.31-5.15-11.74-11.69-23.51-23.36-35.13-35.17-7.08-7.19-7.03-17.78.06-24.95,11.59-11.73,23.25-23.4,34.98-34.98,7.16-7.07,17.8-7.08,24.96-.02,11.74,11.58,23.4,23.25,34.98,34.99,7.16,7.26,7.12,17.86-.06,25.13-11.54,11.68-23.19,23.24-34.8,34.84-3.5,3.49-7.77,5.21-12.67,5.32Z"/></svg>