<?xml version="1.0" encoding="UTF-8"?><svg id="Layer_1" xmlns="http://www.w3.org/2000/svg" viewBox="0 0 255.98 256"><defs><style>.cls-1,.cls-2{stroke-width:0px;}.cls-2{fill:#fff;}</style></defs><path class="cls-1" d="m178.51,110.78c0-.28.02-.55.02-.82,0-38.61-31.3-69.92-69.92-69.92s-69.92,31.3-69.92,69.92,31.3,69.92,69.92,69.92c.73,0,1.44-.03,2.16-.05,4.42-35.63,32.31-63.96,67.73-69.04Z"/><circle class="cls-1" cx="189.91" cy="189.73" r="65.83"/><path class="cls-1" d="m115.19,3.92c4.28.62,8.6,1.01,12.82,1.91,38.32,8.15,64.56,30.63,78.84,67.02,4.12,10.49,5.87,21.53,6.27,32.78.19,5.39-2.44,8.34-7.86,8.47-4.99.12-9.98.09-14.97,0-3.87-.07-6.65-2.92-6.59-6.55.05-3.55,2.73-6.16,6.59-6.26,3.2-.09,6.4-.02,9.61-.02-2.77-45.85-42.72-82.47-84.75-84.01,0,2.8.08,5.59-.02,8.38-.14,3.97-2.37,6.58-5.73,6.9-4.04.38-7.05-2.32-7.25-6.58-.07-1.45-.02-2.9-.02-4.35,0-1.43,0-2.86,0-4.66-20.91,1.71-39.03,9.25-54.43,23.04-18.11,16.21-28.11,36.58-30.6,61.27,3.43,0,6.6,0,9.77,0,2.63,0,4.68,1.05,5.93,3.42,2.28,4.32-.67,9.23-5.71,9.42-3.2.12-6.4.02-9.6.02.49,40.57,36.23,83,84.65,85.7,0-3.36-.05-6.72.01-10.07.08-4.01,2.62-6.8,6.23-6.96,3.2-.15,6.31,1.98,6.44,5.26.26,6.65.19,13.34-.15,19.99-.16,3.17-3.19,5.01-6.94,4.96-12.01-.15-23.76-2.01-34.94-6.39-33.81-13.23-55.8-37.34-65.37-72.45-1.51-5.55-1.95-11.38-2.9-17.08-.09-.54-.27-1.06-.41-1.59,0-4.67,0-9.34,0-14.01.38-2.85.7-5.7,1.15-8.54,3.52-22.27,13.06-41.56,28.87-57.64,15.37-15.63,33.86-25.55,55.46-29.52,4.17-.77,8.38-1.25,12.58-1.87,4.35,0,8.69,0,13.04,0Z"/><path class="cls-2" d="m102.15,3.92c-4.19.62-8.41,1.1-12.58,1.87-21.6,3.98-40.09,13.9-55.46,29.52-15.81,16.08-25.35,35.37-28.87,57.64-.45,2.84-.77,5.69-1.15,8.54,0-32.48,0-64.97,0-97.57,32.68,0,65.37,0,98.05,0Z"/><path class="cls-1" d="m189.83,128.26c33.67-.13,61.4,27.51,61.57,61.36.17,33.69-27.34,61.45-61.01,61.59-33.99.13-61.79-27.37-61.89-61.24-.1-34.05,27.26-61.57,61.33-61.7Zm.24,12.38c-27.68.12-49.31,21.96-49.23,49.71.07,24.75,19.87,48.82,49.4,48.47,28.02-.34,48.8-22.22,48.76-48.94-.04-27.58-21.64-49.24-48.93-49.23Z"/><path class="cls-2" d="m115.14,90.42c0,5.72-.01,11.43,0,17.15,0,3.08-1.24,5.37-3.97,6.93-14.79,8.48-29.54,17.02-44.33,25.5-4.75,2.72-9.6.68-10.39-4.26-.44-2.73.86-5.1,3.88-6.85,7.93-4.6,15.87-9.17,23.82-13.75,5.36-3.09,10.7-6.23,16.12-9.23,1.38-.77,1.88-1.63,1.87-3.21-.07-9.9-.03-19.8-.04-29.7,0-2.75.81-5.07,3.31-6.53,3.69-2.14,8.37-.19,9.37,3.96.26,1.08.33,2.23.33,3.35.03,5.55.01,11.11.01,16.66Z"/><path class="cls-2" d="m190.06,140.64c27.29,0,48.89,21.64,48.93,49.23.04,26.72-20.74,48.61-48.76,48.94-29.52.36-49.32-23.71-49.4-48.47-.08-27.75,21.55-49.58,49.23-49.71Zm6.48,77.01c.33-.06.72-.12,1.1-.19,8.58-1.63,14.34-8.59,14.23-17.19-.1-8.24-6.05-15.15-14.55-16.33-3.95-.55-8.02-.24-12.04-.36-3.32-.1-5.48-2.77-4.75-5.8.53-2.2,2.48-3.58,5.34-3.61,4.91-.05,9.82.04,14.72-.05,3.82-.07,6.41-2.61,6.41-6.09,0-3.44-2.64-6.01-6.4-6.17-1.41-.06-2.82-.01-4.16-.01-1.02-6.09-2.73-8.35-6.39-8.22-3.93.15-6.14,2.07-6.57,8.19-.37.11-.74.26-1.14.34-9.47,1.98-14.96,9.31-14.11,18.85.75,8.41,8.16,14.78,17.32,14.87,2.9.03,5.79-.06,8.69.03,3.34.11,5.49,2.18,5.35,4.96-.14,2.75-2.21,4.44-5.52,4.46-4.51.02-9.01,0-13.52.01-4.77.02-7.56,2.32-7.56,6.2,0,3.92,2.65,6.07,7.56,6.16,1.01.02,2.02.12,2.97.18.8,5.64,2.57,7.92,6.17,8.13,3.61.21,5.23-1.74,6.83-8.36Z"/><path class="cls-1" d="m196.54,217.65c-1.6,6.62-3.22,8.57-6.83,8.36-3.59-.21-5.37-2.49-6.17-8.13-.95-.06-1.96-.16-2.97-.18-4.91-.09-7.56-2.24-7.56-6.16,0-3.88,2.79-6.19,7.56-6.2,4.51-.02,9.01.01,13.52-.01,3.31-.02,5.38-1.71,5.52-4.46.14-2.77-2.01-4.84-5.35-4.96-2.89-.1-5.79,0-8.69-.03-9.16-.09-16.58-6.46-17.32-14.87-.85-9.54,4.64-16.87,14.11-18.85.39-.08.77-.23,1.14-.34.43-6.11,2.65-8.04,6.57-8.19,3.65-.14,5.37,2.12,6.39,8.22,1.34,0,2.75-.05,4.16.01,3.77.17,6.4,2.73,6.4,6.17,0,3.48-2.59,6.02-6.41,6.09-4.91.08-9.82,0-14.72.05-2.87.03-4.81,1.41-5.34,3.61-.73,3.03,1.42,5.69,4.75,5.8,4.01.13,8.08-.19,12.04.36,8.5,1.18,14.45,8.09,14.55,16.33.11,8.6-5.66,15.57-14.23,17.19-.38.07-.77.13-1.1.19Z"/></svg>