<?xml version="1.0" encoding="UTF-8"?><svg id="Layer_1" xmlns="http://www.w3.org/2000/svg" viewBox="0 0 30 30"><defs><style>.cls-1{fill:#5da6da;stroke-width:0px;}</style></defs><path class="cls-1" d="m5.29,14.39c0-2.55,0-5.09,0-7.64,0-.37.05-.42.43-.42,4.39,0,8.79,0,13.18,0,.39,0,.43.04.43.44,0,2.75,0,5.5,0,8.25,0,.15.07.32.13.46.13.28.28.55.41.83.05.1.08.16.21.17.84.07,1.48.48,1.89,1.22.04.07.15.13.23.13,1.79.08,3.13,1.5,3.09,3.29-.04,1.64-1.41,3.04-3.06,3.05-3.1.02-6.2.02-9.31,0-1.16,0-2.05-.57-2.65-1.56-.08-.13-.16-.17-.31-.17-1.42,0-2.84,0-4.26,0-.35,0-.42-.06-.42-.41,0-2.55,0-5.09,0-7.64Zm12.27,9.27c1.54,0,3.07,0,4.61,0,1.48,0,2.64-1.24,2.61-2.74-.04-1.45-1.29-2.62-2.75-2.55-.24.01-.37-.06-.46-.28-.28-.69-.94-1.11-1.69-1.09-.31,0-.34-.01-.43-.31-.56-1.84-2.45-2.99-4.3-2.62-1.94.38-3.27,2.11-3.09,4.06.03.3-.06.43-.31.57-.86.46-1.33,1.21-1.38,2.18-.08,1.56,1.1,2.79,2.67,2.8,1.51,0,3.01,0,4.52,0ZM5.82,12.07v9.83h4.13c-.33-1.62.14-2.77,1.47-3.65.06-.04.1-.13.1-.21.03-.34,0-.68.07-1.01.63-3.33,4.5-4.69,7.08-2.49.03.03.07.05.12.08v-2.56H5.82Zm12.96-.54v-4.67H5.82v4.67h12.96Z"/><path class="cls-1" d="m18.41,20.59c-.46-.91-.91-1.82-1.39-2.76-.06.1-.1.16-.13.23-.6,1.1-1.2,2.2-1.81,3.3-.04.07-.07.16-.13.19-.09.04-.23.07-.29.03-.07-.05-.09-.18-.12-.29,0-.03.03-.08.05-.12.72-1.32,1.44-2.64,2.17-3.96.05-.09.18-.2.27-.2.09,0,.21.11.26.21.25.46.47.92.7,1.39.42.83.83,1.66,1.25,2.49.07.14.13.28,0,.41-.14.13-.28.05-.41-.03-.76-.44-1.52-.88-2.29-1.32-.04-.02-.08-.04-.11-.07-.13-.09-.17-.22-.09-.36.08-.14.22-.16.36-.08.37.21.74.42,1.11.64.19.11.38.22.57.33.01-.01.02-.03.03-.04Z"/><path class="cls-1" d="m9.11,13.26c.61,0,1.21,0,1.82,0,.24,0,.35.09.36.25,0,.17-.12.27-.35.27-1.22,0-2.44,0-3.66,0-.22,0-.36-.1-.34-.27.02-.2.15-.25.34-.25.61,0,1.23,0,1.84,0Z"/><path class="cls-1" d="m9.09,15.39c-.6,0-1.2,0-1.8,0-.24,0-.36-.09-.36-.25,0-.17.12-.27.37-.27,1.21,0,2.42,0,3.64,0,.15,0,.28.02.33.18.07.19-.06.34-.29.34-.63,0-1.26,0-1.88,0Z"/><path class="cls-1" d="m9.1,16.5c.62,0,1.24,0,1.86,0,.21,0,.34.1.32.26-.02.2-.15.26-.33.26-1.23,0-2.45,0-3.68,0-.11,0-.24-.09-.31-.17-.04-.04,0-.2.06-.26.05-.06.17-.07.26-.07.61,0,1.21,0,1.82,0Z"/><path class="cls-1" d="m8.15,18.64c-.3,0-.61,0-.91,0-.18,0-.31-.07-.31-.26,0-.19.13-.26.3-.26.61,0,1.21,0,1.82,0,.17,0,.3.07.3.26,0,.19-.13.26-.3.26-.3,0-.61,0-.91,0Z"/><path class="cls-1" d="m15.02,9.19c-.37-.29-.72-.56-1.07-.82-.05-.04-.09-.07-.13-.11-.11-.11-.13-.23-.03-.35.09-.12.22-.15.34-.06.5.37.99.75,1.47,1.13.16.12.15.3-.01.42-.48.37-.96.74-1.44,1.1-.14.1-.28.09-.38-.06-.1-.15-.04-.27.09-.37.38-.29.75-.58,1.16-.89Z"/><path class="cls-1" d="m9.59,9.19c.36.28.7.53,1.03.79.06.04.12.09.17.14.11.1.13.23.04.35-.09.12-.22.15-.34.06-.5-.38-1-.76-1.49-1.14-.13-.11-.12-.28.02-.39.48-.38.97-.75,1.46-1.12.13-.1.26-.09.36.04.1.14.07.27-.06.38-.38.29-.76.59-1.18.9Z"/><path class="cls-1" d="m13.33,7.88c-.05.11-.07.17-.1.23-.46.8-.93,1.61-1.39,2.41-.11.19-.26.26-.4.17-.17-.11-.15-.26-.06-.41.47-.81.94-1.63,1.41-2.45.08-.13.18-.22.33-.15.08.04.14.14.21.2Z"/></svg>